<svg xmlns="http://www.w3.org/2000/svg" xmlns:xlink="http://www.w3.org/1999/xlink" width="2000" zoomAndPan="magnify" viewBox="0 0 1500 1499.999933" height="2000" preserveAspectRatio="xMidYMid meet" version="1.0"><defs><g/></defs><g fill="#0cbdff" fill-opacity="1"><g transform="translate(172.120585, 953.350971)"><g><path d="M 271.75 -51.28125 C 271.75 -40.1875 271.082031 -31.304688 269.75 -24.640625 C 268.414062 -17.984375 265.972656 -12.765625 262.421875 -8.984375 C 258.867188 -5.210938 253.757812 -2.769531 247.09375 -1.65625 C 240.4375 -0.550781 231.5625 0 220.46875 0 L 78.59375 0 C 67.488281 0 58.609375 -0.550781 51.953125 -1.65625 C 45.296875 -2.769531 40.078125 -5.210938 36.296875 -8.984375 C 32.523438 -12.765625 30.082031 -17.984375 28.96875 -24.640625 C 27.863281 -31.304688 27.3125 -40.1875 27.3125 -51.28125 L 27.3125 -73.265625 C 27.3125 -88.359375 29.085938 -98.679688 32.640625 -104.234375 C 36.191406 -109.785156 42.40625 -112.5625 51.28125 -112.5625 C 59.71875 -112.5625 65.601562 -110.335938 68.9375 -105.890625 C 72.269531 -101.453125 74.378906 -93.019531 75.265625 -80.59375 C 75.703125 -66.382812 77.921875 -57.390625 81.921875 -53.609375 C 85.921875 -49.835938 94.582031 -47.953125 107.90625 -47.953125 L 143.203125 -47.953125 C 151.191406 -47.953125 157.515625 -48.394531 162.171875 -49.28125 C 166.835938 -50.175781 170.390625 -51.84375 172.828125 -54.28125 C 175.273438 -56.726562 176.941406 -60.28125 177.828125 -64.9375 C 178.722656 -69.601562 179.171875 -75.707031 179.171875 -83.25 L 179.171875 -105.234375 C 179.171875 -120.328125 177.0625 -129.875 172.84375 -133.875 C 168.625 -137.875 158.960938 -139.875 143.859375 -139.875 L 77.921875 -139.875 C 67.265625 -139.875 58.492188 -140.535156 51.609375 -141.859375 C 44.734375 -143.191406 39.519531 -145.742188 35.96875 -149.515625 C 32.414062 -153.296875 29.972656 -158.515625 28.640625 -165.171875 C 27.304688 -171.835938 26.640625 -180.722656 26.640625 -191.828125 L 26.640625 -261.09375 C 26.640625 -272.632812 27.191406 -281.847656 28.296875 -288.734375 C 29.410156 -295.617188 31.851562 -300.945312 35.625 -304.71875 C 39.40625 -308.488281 44.625 -310.925781 51.28125 -312.03125 C 57.945312 -313.144531 66.828125 -313.703125 77.921875 -313.703125 L 221.125 -313.703125 C 232.226562 -313.703125 241.109375 -313.144531 247.765625 -312.03125 C 254.429688 -310.925781 259.648438 -308.488281 263.421875 -304.71875 C 267.191406 -300.945312 269.628906 -295.617188 270.734375 -288.734375 C 271.847656 -281.847656 272.40625 -272.632812 272.40625 -261.09375 L 272.40625 -247.109375 C 272.40625 -235.554688 270.519531 -227.335938 266.75 -222.453125 C 262.976562 -217.578125 256.648438 -215.140625 247.765625 -215.140625 C 239.773438 -215.140625 233.890625 -217.132812 230.109375 -221.125 C 226.335938 -225.125 223.785156 -231.785156 222.453125 -241.109375 C 221.566406 -251.316406 219.125 -257.863281 215.125 -260.75 C 211.132812 -263.644531 202.476562 -265.09375 189.15625 -265.09375 L 110.5625 -265.09375 C 103.007812 -265.09375 96.898438 -264.644531 92.234375 -263.75 C 87.578125 -262.863281 84.023438 -261.195312 81.578125 -258.75 C 79.140625 -256.3125 77.585938 -252.757812 76.921875 -248.09375 C 76.253906 -243.4375 75.921875 -237.332031 75.921875 -229.78125 L 75.921875 -224.453125 C 75.921875 -216.910156 76.363281 -210.804688 77.25 -206.140625 C 78.144531 -201.472656 79.8125 -197.921875 82.25 -195.484375 C 84.695312 -193.046875 88.25 -191.492188 92.90625 -190.828125 C 97.570312 -190.160156 103.679688 -189.828125 111.234375 -189.828125 L 220.46875 -189.828125 C 231.5625 -189.828125 240.550781 -189.160156 247.4375 -187.828125 C 254.320312 -186.492188 259.539062 -183.9375 263.09375 -180.15625 C 266.644531 -176.382812 268.972656 -171.054688 270.078125 -164.171875 C 271.191406 -157.296875 271.75 -148.085938 271.75 -136.546875 Z M 271.75 -51.28125 "/></g></g></g><g fill="#0cbdff" fill-opacity="1"><g transform="translate(438.540939, 953.350971)"><g><path d="M 271.078125 -51.28125 C 271.078125 -40.1875 270.410156 -31.304688 269.078125 -24.640625 C 267.742188 -17.984375 265.300781 -12.765625 261.75 -8.984375 C 258.195312 -5.210938 253.09375 -2.769531 246.4375 -1.65625 C 239.78125 -0.550781 230.898438 0 219.796875 0 L 77.921875 0 C 67.265625 0 58.492188 -0.664062 51.609375 -2 C 44.734375 -3.332031 39.519531 -5.773438 35.96875 -9.328125 C 32.414062 -12.878906 29.972656 -18.09375 28.640625 -24.96875 C 27.304688 -31.851562 26.640625 -40.625 26.640625 -51.28125 L 26.640625 -136.546875 C 26.640625 -148.085938 27.191406 -157.296875 28.296875 -164.171875 C 29.410156 -171.054688 31.851562 -176.382812 35.625 -180.15625 C 39.40625 -183.9375 44.625 -186.378906 51.28125 -187.484375 C 57.945312 -188.597656 66.828125 -189.15625 77.921875 -189.15625 L 187.15625 -189.15625 C 194.707031 -189.15625 200.8125 -189.597656 205.46875 -190.484375 C 210.132812 -191.378906 213.6875 -193.046875 216.125 -195.484375 C 218.570312 -197.921875 220.238281 -201.472656 221.125 -206.140625 C 222.007812 -210.804688 222.453125 -216.910156 222.453125 -224.453125 L 222.453125 -230.453125 C 222.453125 -238.003906 222.117188 -244.109375 221.453125 -248.765625 C 220.796875 -253.429688 219.242188 -256.984375 216.796875 -259.421875 C 214.359375 -261.867188 210.804688 -263.425781 206.140625 -264.09375 C 201.472656 -264.757812 195.144531 -265.09375 187.15625 -265.09375 L 107.234375 -265.09375 C 96.128906 -265.09375 88.46875 -263.976562 84.25 -261.75 C 80.03125 -259.53125 77.476562 -254.648438 76.59375 -247.109375 L 75.265625 -237.78125 C 73.046875 -223.125 65.050781 -215.796875 51.28125 -215.796875 C 41.957031 -215.796875 35.519531 -218.457031 31.96875 -223.78125 C 28.414062 -229.113281 26.640625 -238.882812 26.640625 -253.09375 L 26.640625 -261.09375 C 26.640625 -272.632812 27.191406 -281.847656 28.296875 -288.734375 C 29.410156 -295.617188 31.851562 -300.945312 35.625 -304.71875 C 39.40625 -308.488281 44.625 -310.925781 51.28125 -312.03125 C 57.945312 -313.144531 66.828125 -313.703125 77.921875 -313.703125 L 220.46875 -313.703125 C 231.5625 -313.703125 240.4375 -313.144531 247.09375 -312.03125 C 253.757812 -310.925781 258.867188 -308.488281 262.421875 -304.71875 C 265.972656 -300.945312 268.300781 -295.617188 269.40625 -288.734375 C 270.519531 -281.847656 271.078125 -272.632812 271.078125 -261.09375 Z M 153.859375 -140.53125 C 138.765625 -140.53125 129.109375 -138.421875 124.890625 -134.203125 C 120.671875 -129.984375 118.5625 -120.328125 118.5625 -105.234375 L 118.5625 -83.921875 C 118.5625 -75.929688 118.890625 -69.601562 119.546875 -64.9375 C 120.210938 -60.28125 121.878906 -56.726562 124.546875 -54.28125 C 127.210938 -51.84375 130.875 -50.289062 135.53125 -49.625 C 140.195312 -48.957031 146.523438 -48.625 154.515625 -48.625 L 187.15625 -48.625 C 194.707031 -48.625 200.8125 -49.066406 205.46875 -49.953125 C 210.132812 -50.835938 213.6875 -52.5 216.125 -54.9375 C 218.570312 -57.382812 220.238281 -60.828125 221.125 -65.265625 C 222.007812 -69.710938 222.453125 -75.707031 222.453125 -83.25 L 222.453125 -103.234375 C 222.453125 -111.671875 222.117188 -118.332031 221.453125 -123.21875 C 220.796875 -128.101562 219.242188 -131.875 216.796875 -134.53125 C 214.359375 -137.195312 210.804688 -138.863281 206.140625 -139.53125 C 201.472656 -140.195312 195.144531 -140.53125 187.15625 -140.53125 Z M 153.859375 -140.53125 "/></g></g></g><g fill="#0cbdff" fill-opacity="1"><g transform="translate(703.629294, 953.350971)"><g><path d="M 49.28125 -390.96875 C 49.28125 -402.507812 49.835938 -411.832031 50.953125 -418.9375 C 52.066406 -426.039062 54.507812 -431.476562 58.28125 -435.25 C 62.050781 -439.03125 67.265625 -441.472656 73.921875 -442.578125 C 80.585938 -443.691406 89.691406 -444.25 101.234375 -444.25 L 149.859375 -444.25 C 165.398438 -444.25 176.164062 -442.472656 182.15625 -438.921875 C 188.15625 -435.367188 191.15625 -428.929688 191.15625 -419.609375 C 191.15625 -410.285156 188.15625 -403.957031 182.15625 -400.625 C 176.164062 -397.289062 165.398438 -395.625 149.859375 -395.625 L 133.203125 -395.625 C 118.109375 -395.625 108.5625 -393.40625 104.5625 -388.96875 C 100.570312 -384.53125 98.578125 -374.765625 98.578125 -359.671875 L 98.578125 -339.015625 C 98.578125 -328.359375 99.570312 -321.585938 101.5625 -318.703125 C 103.5625 -315.816406 108.78125 -314.375 117.21875 -314.375 C 127.875 -313.925781 135.535156 -311.816406 140.203125 -308.046875 C 144.867188 -304.273438 147.203125 -298.171875 147.203125 -289.734375 C 147.203125 -273.742188 137.875 -265.53125 119.21875 -265.09375 C 109.445312 -264.644531 103.453125 -263.085938 101.234375 -260.421875 C 99.015625 -257.753906 97.90625 -251.09375 97.90625 -240.4375 L 97.90625 -226.453125 C 97.90625 -215.796875 99.125 -208.578125 101.5625 -204.796875 C 104.007812 -201.023438 109.894531 -198.03125 119.21875 -195.8125 C 128.539062 -193.15625 134.644531 -189.601562 137.53125 -185.15625 C 140.425781 -180.71875 141.875 -171.835938 141.875 -158.515625 L 141.875 -56.609375 C 141.875 -45.066406 141.316406 -35.628906 140.203125 -28.296875 C 139.085938 -20.972656 136.863281 -15.203125 133.53125 -10.984375 C 130.207031 -6.765625 125.660156 -3.878906 119.890625 -2.328125 C 114.117188 -0.773438 106.570312 0 97.25 0 C 83.476562 0 73.484375 -1.21875 67.265625 -3.65625 C 61.054688 -6.101562 56.394531 -10.878906 53.28125 -17.984375 C 51.507812 -21.535156 50.398438 -25.863281 49.953125 -30.96875 C 49.503906 -36.070312 49.28125 -44.617188 49.28125 -56.609375 L 49.28125 -236.453125 L 48.625 -247.765625 C 48.625 -253.984375 47.625 -258.09375 45.625 -260.09375 C 43.625 -262.09375 39.738281 -263.535156 33.96875 -264.421875 L 25.3125 -265.09375 C 8.4375 -266.414062 0 -274.40625 0 -289.0625 C 0 -305.488281 9.320312 -313.703125 27.96875 -313.703125 C 32.851562 -313.703125 36.738281 -314.035156 39.625 -314.703125 C 42.507812 -315.367188 44.617188 -316.921875 45.953125 -319.359375 C 47.285156 -321.804688 48.171875 -325.359375 48.609375 -330.015625 C 49.054688 -334.679688 49.28125 -341.015625 49.28125 -349.015625 Z M 49.28125 -390.96875 "/></g></g></g><g fill="#0cbdff" fill-opacity="1"><g transform="translate(844.165932, 953.350971)"><g><path d="M 271.078125 -192.484375 C 271.078125 -181.828125 270.410156 -173.054688 269.078125 -166.171875 C 267.742188 -159.296875 265.300781 -154.082031 261.75 -150.53125 C 258.195312 -146.976562 253.09375 -144.535156 246.4375 -143.203125 C 239.78125 -141.867188 230.898438 -141.203125 219.796875 -141.203125 L 153.859375 -141.203125 C 138.765625 -141.203125 129.109375 -139.09375 124.890625 -134.875 C 120.671875 -130.65625 118.5625 -121 118.5625 -105.90625 L 118.5625 -84.59375 C 118.5625 -76.59375 118.890625 -70.257812 119.546875 -65.59375 C 120.210938 -60.9375 121.878906 -57.382812 124.546875 -54.9375 C 127.210938 -52.5 130.875 -50.945312 135.53125 -50.28125 C 140.195312 -49.613281 146.523438 -49.28125 154.515625 -49.28125 L 193.8125 -49.28125 C 203.582031 -49.28125 210.46875 -50.832031 214.46875 -53.9375 C 218.46875 -57.050781 220.910156 -62.601562 221.796875 -70.59375 L 223.125 -81.921875 C 224.457031 -97.015625 232.226562 -104.5625 246.4375 -104.5625 C 262.863281 -104.5625 271.078125 -93.019531 271.078125 -69.9375 L 271.078125 -51.28125 C 271.078125 -40.1875 270.410156 -31.304688 269.078125 -24.640625 C 267.742188 -17.984375 265.300781 -12.765625 261.75 -8.984375 C 258.195312 -5.210938 253.09375 -2.769531 246.4375 -1.65625 C 239.78125 -0.550781 230.898438 0 219.796875 0 L 77.921875 0 C 67.265625 0 58.492188 -0.550781 51.609375 -1.65625 C 44.734375 -2.769531 39.519531 -5.210938 35.96875 -8.984375 C 32.414062 -12.765625 29.972656 -17.984375 28.640625 -24.640625 C 27.304688 -31.304688 26.640625 -40.1875 26.640625 -51.28125 L 26.640625 -261.09375 C 26.640625 -272.632812 27.191406 -281.847656 28.296875 -288.734375 C 29.410156 -295.617188 31.851562 -300.945312 35.625 -304.71875 C 39.40625 -308.488281 44.625 -310.925781 51.28125 -312.03125 C 57.945312 -313.144531 66.828125 -313.703125 77.921875 -313.703125 L 219.796875 -313.703125 C 230.898438 -313.703125 239.890625 -313.144531 246.765625 -312.03125 C 253.648438 -310.925781 258.867188 -308.488281 262.421875 -304.71875 C 265.972656 -300.945312 268.300781 -295.617188 269.40625 -288.734375 C 270.519531 -281.847656 271.078125 -272.632812 271.078125 -261.09375 Z M 222.453125 -230.453125 C 222.453125 -245.546875 220.34375 -255.203125 216.125 -259.421875 C 211.914062 -263.640625 202.257812 -265.75 187.15625 -265.75 L 110.5625 -265.75 C 102.570312 -265.75 96.242188 -265.414062 91.578125 -264.75 C 86.921875 -264.082031 83.367188 -262.523438 80.921875 -260.078125 C 78.484375 -257.640625 76.929688 -254.085938 76.265625 -249.421875 C 75.597656 -244.765625 75.265625 -238.441406 75.265625 -230.453125 L 75.265625 -225.796875 C 75.265625 -217.796875 75.597656 -211.460938 76.265625 -206.796875 C 76.929688 -202.140625 78.484375 -198.476562 80.921875 -195.8125 C 83.367188 -193.15625 86.921875 -191.492188 91.578125 -190.828125 C 96.242188 -190.160156 102.570312 -189.828125 110.5625 -189.828125 L 187.15625 -189.828125 C 202.257812 -189.828125 211.914062 -191.9375 216.125 -196.15625 C 220.34375 -200.375 222.453125 -210.253906 222.453125 -225.796875 Z M 222.453125 -230.453125 "/></g></g></g><g fill="#0cbdff" fill-opacity="1"><g transform="translate(1109.254286, 953.350971)"><g><path d="M 119.21875 -56.609375 C 119.21875 -45.066406 118.660156 -35.628906 117.546875 -28.296875 C 116.441406 -20.972656 114.222656 -15.203125 110.890625 -10.984375 C 107.566406 -6.765625 103.015625 -3.878906 97.234375 -2.328125 C 91.460938 -0.773438 83.914062 0 74.59375 0 C 60.832031 0 50.953125 -1.21875 44.953125 -3.65625 C 38.960938 -6.101562 34.191406 -10.878906 30.640625 -17.984375 C 28.859375 -21.535156 27.742188 -25.863281 27.296875 -30.96875 C 26.859375 -36.070312 26.640625 -44.617188 26.640625 -56.609375 L 26.640625 -261.09375 C 26.640625 -272.632812 27.191406 -281.847656 28.296875 -288.734375 C 29.410156 -295.617188 31.851562 -300.945312 35.625 -304.71875 C 39.40625 -308.488281 44.625 -310.925781 51.28125 -312.03125 C 57.945312 -313.144531 66.828125 -313.703125 77.921875 -313.703125 L 162.515625 -313.703125 C 178.054688 -313.703125 188.820312 -311.925781 194.8125 -308.375 C 200.8125 -304.820312 203.8125 -298.609375 203.8125 -289.734375 C 203.8125 -279.960938 200.8125 -273.410156 194.8125 -270.078125 C 188.820312 -266.753906 178.054688 -265.09375 162.515625 -265.09375 L 110.5625 -265.09375 C 95.46875 -265.09375 85.8125 -262.984375 81.59375 -258.765625 C 77.375 -254.546875 75.265625 -244.882812 75.265625 -229.78125 L 75.265625 -226.453125 C 75.265625 -215.796875 76.59375 -208.578125 79.25 -204.796875 C 81.914062 -201.023438 87.914062 -198.03125 97.25 -195.8125 C 106.570312 -193.15625 112.5625 -189.601562 115.21875 -185.15625 C 117.882812 -180.71875 119.21875 -171.835938 119.21875 -158.515625 Z M 119.21875 -56.609375 "/></g></g></g><g fill="#ff7a00" fill-opacity="1"><g transform="translate(178.258579, 957.648824)"><g><path d="M 271.75 -51.28125 C 271.75 -40.1875 271.082031 -31.304688 269.75 -24.640625 C 268.414062 -17.984375 265.972656 -12.765625 262.421875 -8.984375 C 258.867188 -5.210938 253.757812 -2.769531 247.09375 -1.65625 C 240.4375 -0.550781 231.5625 0 220.46875 0 L 78.59375 0 C 67.488281 0 58.609375 -0.550781 51.953125 -1.65625 C 45.296875 -2.769531 40.078125 -5.210938 36.296875 -8.984375 C 32.523438 -12.765625 30.082031 -17.984375 28.96875 -24.640625 C 27.863281 -31.304688 27.3125 -40.1875 27.3125 -51.28125 L 27.3125 -73.265625 C 27.3125 -88.359375 29.085938 -98.679688 32.640625 -104.234375 C 36.191406 -109.785156 42.40625 -112.5625 51.28125 -112.5625 C 59.71875 -112.5625 65.601562 -110.335938 68.9375 -105.890625 C 72.269531 -101.453125 74.378906 -93.019531 75.265625 -80.59375 C 75.703125 -66.382812 77.921875 -57.390625 81.921875 -53.609375 C 85.921875 -49.835938 94.582031 -47.953125 107.90625 -47.953125 L 143.203125 -47.953125 C 151.191406 -47.953125 157.515625 -48.394531 162.171875 -49.28125 C 166.835938 -50.175781 170.390625 -51.84375 172.828125 -54.28125 C 175.273438 -56.726562 176.941406 -60.28125 177.828125 -64.9375 C 178.722656 -69.601562 179.171875 -75.707031 179.171875 -83.25 L 179.171875 -105.234375 C 179.171875 -120.328125 177.0625 -129.875 172.84375 -133.875 C 168.625 -137.875 158.960938 -139.875 143.859375 -139.875 L 77.921875 -139.875 C 67.265625 -139.875 58.492188 -140.535156 51.609375 -141.859375 C 44.734375 -143.191406 39.519531 -145.742188 35.96875 -149.515625 C 32.414062 -153.296875 29.972656 -158.515625 28.640625 -165.171875 C 27.304688 -171.835938 26.640625 -180.722656 26.640625 -191.828125 L 26.640625 -261.09375 C 26.640625 -272.632812 27.191406 -281.847656 28.296875 -288.734375 C 29.410156 -295.617188 31.851562 -300.945312 35.625 -304.71875 C 39.40625 -308.488281 44.625 -310.925781 51.28125 -312.03125 C 57.945312 -313.144531 66.828125 -313.703125 77.921875 -313.703125 L 221.125 -313.703125 C 232.226562 -313.703125 241.109375 -313.144531 247.765625 -312.03125 C 254.429688 -310.925781 259.648438 -308.488281 263.421875 -304.71875 C 267.191406 -300.945312 269.628906 -295.617188 270.734375 -288.734375 C 271.847656 -281.847656 272.40625 -272.632812 272.40625 -261.09375 L 272.40625 -247.109375 C 272.40625 -235.554688 270.519531 -227.335938 266.75 -222.453125 C 262.976562 -217.578125 256.648438 -215.140625 247.765625 -215.140625 C 239.773438 -215.140625 233.890625 -217.132812 230.109375 -221.125 C 226.335938 -225.125 223.785156 -231.785156 222.453125 -241.109375 C 221.566406 -251.316406 219.125 -257.863281 215.125 -260.75 C 211.132812 -263.644531 202.476562 -265.09375 189.15625 -265.09375 L 110.5625 -265.09375 C 103.007812 -265.09375 96.898438 -264.644531 92.234375 -263.75 C 87.578125 -262.863281 84.023438 -261.195312 81.578125 -258.75 C 79.140625 -256.3125 77.585938 -252.757812 76.921875 -248.09375 C 76.253906 -243.4375 75.921875 -237.332031 75.921875 -229.78125 L 75.921875 -224.453125 C 75.921875 -216.910156 76.363281 -210.804688 77.25 -206.140625 C 78.144531 -201.472656 79.8125 -197.921875 82.25 -195.484375 C 84.695312 -193.046875 88.25 -191.492188 92.90625 -190.828125 C 97.570312 -190.160156 103.679688 -189.828125 111.234375 -189.828125 L 220.46875 -189.828125 C 231.5625 -189.828125 240.550781 -189.160156 247.4375 -187.828125 C 254.320312 -186.492188 259.539062 -183.9375 263.09375 -180.15625 C 266.644531 -176.382812 268.972656 -171.054688 270.078125 -164.171875 C 271.191406 -157.296875 271.75 -148.085938 271.75 -136.546875 Z M 271.75 -51.28125 "/></g></g></g><g fill="#ff7a00" fill-opacity="1"><g transform="translate(444.678934, 957.648824)"><g><path d="M 271.078125 -51.28125 C 271.078125 -40.1875 270.410156 -31.304688 269.078125 -24.640625 C 267.742188 -17.984375 265.300781 -12.765625 261.75 -8.984375 C 258.195312 -5.210938 253.09375 -2.769531 246.4375 -1.65625 C 239.78125 -0.550781 230.898438 0 219.796875 0 L 77.921875 0 C 67.265625 0 58.492188 -0.664062 51.609375 -2 C 44.734375 -3.332031 39.519531 -5.773438 35.96875 -9.328125 C 32.414062 -12.878906 29.972656 -18.09375 28.640625 -24.96875 C 27.304688 -31.851562 26.640625 -40.625 26.640625 -51.28125 L 26.640625 -136.546875 C 26.640625 -148.085938 27.191406 -157.296875 28.296875 -164.171875 C 29.410156 -171.054688 31.851562 -176.382812 35.625 -180.15625 C 39.40625 -183.9375 44.625 -186.378906 51.28125 -187.484375 C 57.945312 -188.597656 66.828125 -189.15625 77.921875 -189.15625 L 187.15625 -189.15625 C 194.707031 -189.15625 200.8125 -189.597656 205.46875 -190.484375 C 210.132812 -191.378906 213.6875 -193.046875 216.125 -195.484375 C 218.570312 -197.921875 220.238281 -201.472656 221.125 -206.140625 C 222.007812 -210.804688 222.453125 -216.910156 222.453125 -224.453125 L 222.453125 -230.453125 C 222.453125 -238.003906 222.117188 -244.109375 221.453125 -248.765625 C 220.796875 -253.429688 219.242188 -256.984375 216.796875 -259.421875 C 214.359375 -261.867188 210.804688 -263.425781 206.140625 -264.09375 C 201.472656 -264.757812 195.144531 -265.09375 187.15625 -265.09375 L 107.234375 -265.09375 C 96.128906 -265.09375 88.46875 -263.976562 84.25 -261.75 C 80.03125 -259.53125 77.476562 -254.648438 76.59375 -247.109375 L 75.265625 -237.78125 C 73.046875 -223.125 65.050781 -215.796875 51.28125 -215.796875 C 41.957031 -215.796875 35.519531 -218.457031 31.96875 -223.78125 C 28.414062 -229.113281 26.640625 -238.882812 26.640625 -253.09375 L 26.640625 -261.09375 C 26.640625 -272.632812 27.191406 -281.847656 28.296875 -288.734375 C 29.410156 -295.617188 31.851562 -300.945312 35.625 -304.71875 C 39.40625 -308.488281 44.625 -310.925781 51.28125 -312.03125 C 57.945312 -313.144531 66.828125 -313.703125 77.921875 -313.703125 L 220.46875 -313.703125 C 231.5625 -313.703125 240.4375 -313.144531 247.09375 -312.03125 C 253.757812 -310.925781 258.867188 -308.488281 262.421875 -304.71875 C 265.972656 -300.945312 268.300781 -295.617188 269.40625 -288.734375 C 270.519531 -281.847656 271.078125 -272.632812 271.078125 -261.09375 Z M 153.859375 -140.53125 C 138.765625 -140.53125 129.109375 -138.421875 124.890625 -134.203125 C 120.671875 -129.984375 118.5625 -120.328125 118.5625 -105.234375 L 118.5625 -83.921875 C 118.5625 -75.929688 118.890625 -69.601562 119.546875 -64.9375 C 120.210938 -60.28125 121.878906 -56.726562 124.546875 -54.28125 C 127.210938 -51.84375 130.875 -50.289062 135.53125 -49.625 C 140.195312 -48.957031 146.523438 -48.625 154.515625 -48.625 L 187.15625 -48.625 C 194.707031 -48.625 200.8125 -49.066406 205.46875 -49.953125 C 210.132812 -50.835938 213.6875 -52.5 216.125 -54.9375 C 218.570312 -57.382812 220.238281 -60.828125 221.125 -65.265625 C 222.007812 -69.710938 222.453125 -75.707031 222.453125 -83.25 L 222.453125 -103.234375 C 222.453125 -111.671875 222.117188 -118.332031 221.453125 -123.21875 C 220.796875 -128.101562 219.242188 -131.875 216.796875 -134.53125 C 214.359375 -137.195312 210.804688 -138.863281 206.140625 -139.53125 C 201.472656 -140.195312 195.144531 -140.53125 187.15625 -140.53125 Z M 153.859375 -140.53125 "/></g></g></g><g fill="#ff7a00" fill-opacity="1"><g transform="translate(709.767288, 957.648824)"><g><path d="M 49.28125 -390.96875 C 49.28125 -402.507812 49.835938 -411.832031 50.953125 -418.9375 C 52.066406 -426.039062 54.507812 -431.476562 58.28125 -435.25 C 62.050781 -439.03125 67.265625 -441.472656 73.921875 -442.578125 C 80.585938 -443.691406 89.691406 -444.25 101.234375 -444.25 L 149.859375 -444.25 C 165.398438 -444.25 176.164062 -442.472656 182.15625 -438.921875 C 188.15625 -435.367188 191.15625 -428.929688 191.15625 -419.609375 C 191.15625 -410.285156 188.15625 -403.957031 182.15625 -400.625 C 176.164062 -397.289062 165.398438 -395.625 149.859375 -395.625 L 133.203125 -395.625 C 118.109375 -395.625 108.5625 -393.40625 104.5625 -388.96875 C 100.570312 -384.53125 98.578125 -374.765625 98.578125 -359.671875 L 98.578125 -339.015625 C 98.578125 -328.359375 99.570312 -321.585938 101.5625 -318.703125 C 103.5625 -315.816406 108.78125 -314.375 117.21875 -314.375 C 127.875 -313.925781 135.535156 -311.816406 140.203125 -308.046875 C 144.867188 -304.273438 147.203125 -298.171875 147.203125 -289.734375 C 147.203125 -273.742188 137.875 -265.53125 119.21875 -265.09375 C 109.445312 -264.644531 103.453125 -263.085938 101.234375 -260.421875 C 99.015625 -257.753906 97.90625 -251.09375 97.90625 -240.4375 L 97.90625 -226.453125 C 97.90625 -215.796875 99.125 -208.578125 101.5625 -204.796875 C 104.007812 -201.023438 109.894531 -198.03125 119.21875 -195.8125 C 128.539062 -193.15625 134.644531 -189.601562 137.53125 -185.15625 C 140.425781 -180.71875 141.875 -171.835938 141.875 -158.515625 L 141.875 -56.609375 C 141.875 -45.066406 141.316406 -35.628906 140.203125 -28.296875 C 139.085938 -20.972656 136.863281 -15.203125 133.53125 -10.984375 C 130.207031 -6.765625 125.660156 -3.878906 119.890625 -2.328125 C 114.117188 -0.773438 106.570312 0 97.25 0 C 83.476562 0 73.484375 -1.21875 67.265625 -3.65625 C 61.054688 -6.101562 56.394531 -10.878906 53.28125 -17.984375 C 51.507812 -21.535156 50.398438 -25.863281 49.953125 -30.96875 C 49.503906 -36.070312 49.28125 -44.617188 49.28125 -56.609375 L 49.28125 -236.453125 L 48.625 -247.765625 C 48.625 -253.984375 47.625 -258.09375 45.625 -260.09375 C 43.625 -262.09375 39.738281 -263.535156 33.96875 -264.421875 L 25.3125 -265.09375 C 8.4375 -266.414062 0 -274.40625 0 -289.0625 C 0 -305.488281 9.320312 -313.703125 27.96875 -313.703125 C 32.851562 -313.703125 36.738281 -314.035156 39.625 -314.703125 C 42.507812 -315.367188 44.617188 -316.921875 45.953125 -319.359375 C 47.285156 -321.804688 48.171875 -325.359375 48.609375 -330.015625 C 49.054688 -334.679688 49.28125 -341.015625 49.28125 -349.015625 Z M 49.28125 -390.96875 "/></g></g></g><g fill="#ff7a00" fill-opacity="1"><g transform="translate(850.303926, 957.648824)"><g><path d="M 271.078125 -192.484375 C 271.078125 -181.828125 270.410156 -173.054688 269.078125 -166.171875 C 267.742188 -159.296875 265.300781 -154.082031 261.75 -150.53125 C 258.195312 -146.976562 253.09375 -144.535156 246.4375 -143.203125 C 239.78125 -141.867188 230.898438 -141.203125 219.796875 -141.203125 L 153.859375 -141.203125 C 138.765625 -141.203125 129.109375 -139.09375 124.890625 -134.875 C 120.671875 -130.65625 118.5625 -121 118.5625 -105.90625 L 118.5625 -84.59375 C 118.5625 -76.59375 118.890625 -70.257812 119.546875 -65.59375 C 120.210938 -60.9375 121.878906 -57.382812 124.546875 -54.9375 C 127.210938 -52.5 130.875 -50.945312 135.53125 -50.28125 C 140.195312 -49.613281 146.523438 -49.28125 154.515625 -49.28125 L 193.8125 -49.28125 C 203.582031 -49.28125 210.46875 -50.832031 214.46875 -53.9375 C 218.46875 -57.050781 220.910156 -62.601562 221.796875 -70.59375 L 223.125 -81.921875 C 224.457031 -97.015625 232.226562 -104.5625 246.4375 -104.5625 C 262.863281 -104.5625 271.078125 -93.019531 271.078125 -69.9375 L 271.078125 -51.28125 C 271.078125 -40.1875 270.410156 -31.304688 269.078125 -24.640625 C 267.742188 -17.984375 265.300781 -12.765625 261.75 -8.984375 C 258.195312 -5.210938 253.09375 -2.769531 246.4375 -1.65625 C 239.78125 -0.550781 230.898438 0 219.796875 0 L 77.921875 0 C 67.265625 0 58.492188 -0.550781 51.609375 -1.65625 C 44.734375 -2.769531 39.519531 -5.210938 35.96875 -8.984375 C 32.414062 -12.765625 29.972656 -17.984375 28.640625 -24.640625 C 27.304688 -31.304688 26.640625 -40.1875 26.640625 -51.28125 L 26.640625 -261.09375 C 26.640625 -272.632812 27.191406 -281.847656 28.296875 -288.734375 C 29.410156 -295.617188 31.851562 -300.945312 35.625 -304.71875 C 39.40625 -308.488281 44.625 -310.925781 51.28125 -312.03125 C 57.945312 -313.144531 66.828125 -313.703125 77.921875 -313.703125 L 219.796875 -313.703125 C 230.898438 -313.703125 239.890625 -313.144531 246.765625 -312.03125 C 253.648438 -310.925781 258.867188 -308.488281 262.421875 -304.71875 C 265.972656 -300.945312 268.300781 -295.617188 269.40625 -288.734375 C 270.519531 -281.847656 271.078125 -272.632812 271.078125 -261.09375 Z M 222.453125 -230.453125 C 222.453125 -245.546875 220.34375 -255.203125 216.125 -259.421875 C 211.914062 -263.640625 202.257812 -265.75 187.15625 -265.75 L 110.5625 -265.75 C 102.570312 -265.75 96.242188 -265.414062 91.578125 -264.75 C 86.921875 -264.082031 83.367188 -262.523438 80.921875 -260.078125 C 78.484375 -257.640625 76.929688 -254.085938 76.265625 -249.421875 C 75.597656 -244.765625 75.265625 -238.441406 75.265625 -230.453125 L 75.265625 -225.796875 C 75.265625 -217.796875 75.597656 -211.460938 76.265625 -206.796875 C 76.929688 -202.140625 78.484375 -198.476562 80.921875 -195.8125 C 83.367188 -193.15625 86.921875 -191.492188 91.578125 -190.828125 C 96.242188 -190.160156 102.570312 -189.828125 110.5625 -189.828125 L 187.15625 -189.828125 C 202.257812 -189.828125 211.914062 -191.9375 216.125 -196.15625 C 220.34375 -200.375 222.453125 -210.253906 222.453125 -225.796875 Z M 222.453125 -230.453125 "/></g></g></g><g fill="#ff7a00" fill-opacity="1"><g transform="translate(1115.392281, 957.648824)"><g><path d="M 119.21875 -56.609375 C 119.21875 -45.066406 118.660156 -35.628906 117.546875 -28.296875 C 116.441406 -20.972656 114.222656 -15.203125 110.890625 -10.984375 C 107.566406 -6.765625 103.015625 -3.878906 97.234375 -2.328125 C 91.460938 -0.773438 83.914062 0 74.59375 0 C 60.832031 0 50.953125 -1.21875 44.953125 -3.65625 C 38.960938 -6.101562 34.191406 -10.878906 30.640625 -17.984375 C 28.859375 -21.535156 27.742188 -25.863281 27.296875 -30.96875 C 26.859375 -36.070312 26.640625 -44.617188 26.640625 -56.609375 L 26.640625 -261.09375 C 26.640625 -272.632812 27.191406 -281.847656 28.296875 -288.734375 C 29.410156 -295.617188 31.851562 -300.945312 35.625 -304.71875 C 39.40625 -308.488281 44.625 -310.925781 51.28125 -312.03125 C 57.945312 -313.144531 66.828125 -313.703125 77.921875 -313.703125 L 162.515625 -313.703125 C 178.054688 -313.703125 188.820312 -311.925781 194.8125 -308.375 C 200.8125 -304.820312 203.8125 -298.609375 203.8125 -289.734375 C 203.8125 -279.960938 200.8125 -273.410156 194.8125 -270.078125 C 188.820312 -266.753906 178.054688 -265.09375 162.515625 -265.09375 L 110.5625 -265.09375 C 95.46875 -265.09375 85.8125 -262.984375 81.59375 -258.765625 C 77.375 -254.546875 75.265625 -244.882812 75.265625 -229.78125 L 75.265625 -226.453125 C 75.265625 -215.796875 76.59375 -208.578125 79.25 -204.796875 C 81.914062 -201.023438 87.914062 -198.03125 97.25 -195.8125 C 106.570312 -193.15625 112.5625 -189.601562 115.21875 -185.15625 C 117.882812 -180.71875 119.21875 -171.835938 119.21875 -158.515625 Z M 119.21875 -56.609375 "/></g></g></g><g fill="#95f6f0" fill-opacity="1"><g transform="translate(175.189582, 955.499898)"><g><path d="M 271.75 -51.28125 C 271.75 -40.1875 271.082031 -31.304688 269.75 -24.640625 C 268.414062 -17.984375 265.972656 -12.765625 262.421875 -8.984375 C 258.867188 -5.210938 253.757812 -2.769531 247.09375 -1.65625 C 240.4375 -0.550781 231.5625 0 220.46875 0 L 78.59375 0 C 67.488281 0 58.609375 -0.550781 51.953125 -1.65625 C 45.296875 -2.769531 40.078125 -5.210938 36.296875 -8.984375 C 32.523438 -12.765625 30.082031 -17.984375 28.96875 -24.640625 C 27.863281 -31.304688 27.3125 -40.1875 27.3125 -51.28125 L 27.3125 -73.265625 C 27.3125 -88.359375 29.085938 -98.679688 32.640625 -104.234375 C 36.191406 -109.785156 42.40625 -112.5625 51.28125 -112.5625 C 59.71875 -112.5625 65.601562 -110.335938 68.9375 -105.890625 C 72.269531 -101.453125 74.378906 -93.019531 75.265625 -80.59375 C 75.703125 -66.382812 77.921875 -57.390625 81.921875 -53.609375 C 85.921875 -49.835938 94.582031 -47.953125 107.90625 -47.953125 L 143.203125 -47.953125 C 151.191406 -47.953125 157.515625 -48.394531 162.171875 -49.28125 C 166.835938 -50.175781 170.390625 -51.84375 172.828125 -54.28125 C 175.273438 -56.726562 176.941406 -60.28125 177.828125 -64.9375 C 178.722656 -69.601562 179.171875 -75.707031 179.171875 -83.25 L 179.171875 -105.234375 C 179.171875 -120.328125 177.0625 -129.875 172.84375 -133.875 C 168.625 -137.875 158.960938 -139.875 143.859375 -139.875 L 77.921875 -139.875 C 67.265625 -139.875 58.492188 -140.535156 51.609375 -141.859375 C 44.734375 -143.191406 39.519531 -145.742188 35.96875 -149.515625 C 32.414062 -153.296875 29.972656 -158.515625 28.640625 -165.171875 C 27.304688 -171.835938 26.640625 -180.722656 26.640625 -191.828125 L 26.640625 -261.09375 C 26.640625 -272.632812 27.191406 -281.847656 28.296875 -288.734375 C 29.410156 -295.617188 31.851562 -300.945312 35.625 -304.71875 C 39.40625 -308.488281 44.625 -310.925781 51.28125 -312.03125 C 57.945312 -313.144531 66.828125 -313.703125 77.921875 -313.703125 L 221.125 -313.703125 C 232.226562 -313.703125 241.109375 -313.144531 247.765625 -312.03125 C 254.429688 -310.925781 259.648438 -308.488281 263.421875 -304.71875 C 267.191406 -300.945312 269.628906 -295.617188 270.734375 -288.734375 C 271.847656 -281.847656 272.40625 -272.632812 272.40625 -261.09375 L 272.40625 -247.109375 C 272.40625 -235.554688 270.519531 -227.335938 266.75 -222.453125 C 262.976562 -217.578125 256.648438 -215.140625 247.765625 -215.140625 C 239.773438 -215.140625 233.890625 -217.132812 230.109375 -221.125 C 226.335938 -225.125 223.785156 -231.785156 222.453125 -241.109375 C 221.566406 -251.316406 219.125 -257.863281 215.125 -260.75 C 211.132812 -263.644531 202.476562 -265.09375 189.15625 -265.09375 L 110.5625 -265.09375 C 103.007812 -265.09375 96.898438 -264.644531 92.234375 -263.75 C 87.578125 -262.863281 84.023438 -261.195312 81.578125 -258.75 C 79.140625 -256.3125 77.585938 -252.757812 76.921875 -248.09375 C 76.253906 -243.4375 75.921875 -237.332031 75.921875 -229.78125 L 75.921875 -224.453125 C 75.921875 -216.910156 76.363281 -210.804688 77.25 -206.140625 C 78.144531 -201.472656 79.8125 -197.921875 82.25 -195.484375 C 84.695312 -193.046875 88.25 -191.492188 92.90625 -190.828125 C 97.570312 -190.160156 103.679688 -189.828125 111.234375 -189.828125 L 220.46875 -189.828125 C 231.5625 -189.828125 240.550781 -189.160156 247.4375 -187.828125 C 254.320312 -186.492188 259.539062 -183.9375 263.09375 -180.15625 C 266.644531 -176.382812 268.972656 -171.054688 270.078125 -164.171875 C 271.191406 -157.296875 271.75 -148.085938 271.75 -136.546875 Z M 271.75 -51.28125 "/></g></g></g><g fill="#95f6f0" fill-opacity="1"><g transform="translate(441.609936, 955.499898)"><g><path d="M 271.078125 -51.28125 C 271.078125 -40.1875 270.410156 -31.304688 269.078125 -24.640625 C 267.742188 -17.984375 265.300781 -12.765625 261.75 -8.984375 C 258.195312 -5.210938 253.09375 -2.769531 246.4375 -1.65625 C 239.78125 -0.550781 230.898438 0 219.796875 0 L 77.921875 0 C 67.265625 0 58.492188 -0.664062 51.609375 -2 C 44.734375 -3.332031 39.519531 -5.773438 35.96875 -9.328125 C 32.414062 -12.878906 29.972656 -18.09375 28.640625 -24.96875 C 27.304688 -31.851562 26.640625 -40.625 26.640625 -51.28125 L 26.640625 -136.546875 C 26.640625 -148.085938 27.191406 -157.296875 28.296875 -164.171875 C 29.410156 -171.054688 31.851562 -176.382812 35.625 -180.15625 C 39.40625 -183.9375 44.625 -186.378906 51.28125 -187.484375 C 57.945312 -188.597656 66.828125 -189.15625 77.921875 -189.15625 L 187.15625 -189.15625 C 194.707031 -189.15625 200.8125 -189.597656 205.46875 -190.484375 C 210.132812 -191.378906 213.6875 -193.046875 216.125 -195.484375 C 218.570312 -197.921875 220.238281 -201.472656 221.125 -206.140625 C 222.007812 -210.804688 222.453125 -216.910156 222.453125 -224.453125 L 222.453125 -230.453125 C 222.453125 -238.003906 222.117188 -244.109375 221.453125 -248.765625 C 220.796875 -253.429688 219.242188 -256.984375 216.796875 -259.421875 C 214.359375 -261.867188 210.804688 -263.425781 206.140625 -264.09375 C 201.472656 -264.757812 195.144531 -265.09375 187.15625 -265.09375 L 107.234375 -265.09375 C 96.128906 -265.09375 88.46875 -263.976562 84.25 -261.75 C 80.03125 -259.53125 77.476562 -254.648438 76.59375 -247.109375 L 75.265625 -237.78125 C 73.046875 -223.125 65.050781 -215.796875 51.28125 -215.796875 C 41.957031 -215.796875 35.519531 -218.457031 31.96875 -223.78125 C 28.414062 -229.113281 26.640625 -238.882812 26.640625 -253.09375 L 26.640625 -261.09375 C 26.640625 -272.632812 27.191406 -281.847656 28.296875 -288.734375 C 29.410156 -295.617188 31.851562 -300.945312 35.625 -304.71875 C 39.40625 -308.488281 44.625 -310.925781 51.28125 -312.03125 C 57.945312 -313.144531 66.828125 -313.703125 77.921875 -313.703125 L 220.46875 -313.703125 C 231.5625 -313.703125 240.4375 -313.144531 247.09375 -312.03125 C 253.757812 -310.925781 258.867188 -308.488281 262.421875 -304.71875 C 265.972656 -300.945312 268.300781 -295.617188 269.40625 -288.734375 C 270.519531 -281.847656 271.078125 -272.632812 271.078125 -261.09375 Z M 153.859375 -140.53125 C 138.765625 -140.53125 129.109375 -138.421875 124.890625 -134.203125 C 120.671875 -129.984375 118.5625 -120.328125 118.5625 -105.234375 L 118.5625 -83.921875 C 118.5625 -75.929688 118.890625 -69.601562 119.546875 -64.9375 C 120.210938 -60.28125 121.878906 -56.726562 124.546875 -54.28125 C 127.210938 -51.84375 130.875 -50.289062 135.53125 -49.625 C 140.195312 -48.957031 146.523438 -48.625 154.515625 -48.625 L 187.15625 -48.625 C 194.707031 -48.625 200.8125 -49.066406 205.46875 -49.953125 C 210.132812 -50.835938 213.6875 -52.5 216.125 -54.9375 C 218.570312 -57.382812 220.238281 -60.828125 221.125 -65.265625 C 222.007812 -69.710938 222.453125 -75.707031 222.453125 -83.25 L 222.453125 -103.234375 C 222.453125 -111.671875 222.117188 -118.332031 221.453125 -123.21875 C 220.796875 -128.101562 219.242188 -131.875 216.796875 -134.53125 C 214.359375 -137.195312 210.804688 -138.863281 206.140625 -139.53125 C 201.472656 -140.195312 195.144531 -140.53125 187.15625 -140.53125 Z M 153.859375 -140.53125 "/></g></g></g><g fill="#95f6f0" fill-opacity="1"><g transform="translate(706.698291, 955.499898)"><g><path d="M 49.28125 -390.96875 C 49.28125 -402.507812 49.835938 -411.832031 50.953125 -418.9375 C 52.066406 -426.039062 54.507812 -431.476562 58.28125 -435.25 C 62.050781 -439.03125 67.265625 -441.472656 73.921875 -442.578125 C 80.585938 -443.691406 89.691406 -444.25 101.234375 -444.25 L 149.859375 -444.25 C 165.398438 -444.25 176.164062 -442.472656 182.15625 -438.921875 C 188.15625 -435.367188 191.15625 -428.929688 191.15625 -419.609375 C 191.15625 -410.285156 188.15625 -403.957031 182.15625 -400.625 C 176.164062 -397.289062 165.398438 -395.625 149.859375 -395.625 L 133.203125 -395.625 C 118.109375 -395.625 108.5625 -393.40625 104.5625 -388.96875 C 100.570312 -384.53125 98.578125 -374.765625 98.578125 -359.671875 L 98.578125 -339.015625 C 98.578125 -328.359375 99.570312 -321.585938 101.5625 -318.703125 C 103.5625 -315.816406 108.78125 -314.375 117.21875 -314.375 C 127.875 -313.925781 135.535156 -311.816406 140.203125 -308.046875 C 144.867188 -304.273438 147.203125 -298.171875 147.203125 -289.734375 C 147.203125 -273.742188 137.875 -265.53125 119.21875 -265.09375 C 109.445312 -264.644531 103.453125 -263.085938 101.234375 -260.421875 C 99.015625 -257.753906 97.90625 -251.09375 97.90625 -240.4375 L 97.90625 -226.453125 C 97.90625 -215.796875 99.125 -208.578125 101.5625 -204.796875 C 104.007812 -201.023438 109.894531 -198.03125 119.21875 -195.8125 C 128.539062 -193.15625 134.644531 -189.601562 137.53125 -185.15625 C 140.425781 -180.71875 141.875 -171.835938 141.875 -158.515625 L 141.875 -56.609375 C 141.875 -45.066406 141.316406 -35.628906 140.203125 -28.296875 C 139.085938 -20.972656 136.863281 -15.203125 133.53125 -10.984375 C 130.207031 -6.765625 125.660156 -3.878906 119.890625 -2.328125 C 114.117188 -0.773438 106.570312 0 97.25 0 C 83.476562 0 73.484375 -1.21875 67.265625 -3.65625 C 61.054688 -6.101562 56.394531 -10.878906 53.28125 -17.984375 C 51.507812 -21.535156 50.398438 -25.863281 49.953125 -30.96875 C 49.503906 -36.070312 49.28125 -44.617188 49.28125 -56.609375 L 49.28125 -236.453125 L 48.625 -247.765625 C 48.625 -253.984375 47.625 -258.09375 45.625 -260.09375 C 43.625 -262.09375 39.738281 -263.535156 33.96875 -264.421875 L 25.3125 -265.09375 C 8.4375 -266.414062 0 -274.40625 0 -289.0625 C 0 -305.488281 9.320312 -313.703125 27.96875 -313.703125 C 32.851562 -313.703125 36.738281 -314.035156 39.625 -314.703125 C 42.507812 -315.367188 44.617188 -316.921875 45.953125 -319.359375 C 47.285156 -321.804688 48.171875 -325.359375 48.609375 -330.015625 C 49.054688 -334.679688 49.28125 -341.015625 49.28125 -349.015625 Z M 49.28125 -390.96875 "/></g></g></g><g fill="#95f6f0" fill-opacity="1"><g transform="translate(847.234929, 955.499898)"><g><path d="M 271.078125 -192.484375 C 271.078125 -181.828125 270.410156 -173.054688 269.078125 -166.171875 C 267.742188 -159.296875 265.300781 -154.082031 261.75 -150.53125 C 258.195312 -146.976562 253.09375 -144.535156 246.4375 -143.203125 C 239.78125 -141.867188 230.898438 -141.203125 219.796875 -141.203125 L 153.859375 -141.203125 C 138.765625 -141.203125 129.109375 -139.09375 124.890625 -134.875 C 120.671875 -130.65625 118.5625 -121 118.5625 -105.90625 L 118.5625 -84.59375 C 118.5625 -76.59375 118.890625 -70.257812 119.546875 -65.59375 C 120.210938 -60.9375 121.878906 -57.382812 124.546875 -54.9375 C 127.210938 -52.5 130.875 -50.945312 135.53125 -50.28125 C 140.195312 -49.613281 146.523438 -49.28125 154.515625 -49.28125 L 193.8125 -49.28125 C 203.582031 -49.28125 210.46875 -50.832031 214.46875 -53.9375 C 218.46875 -57.050781 220.910156 -62.601562 221.796875 -70.59375 L 223.125 -81.921875 C 224.457031 -97.015625 232.226562 -104.5625 246.4375 -104.5625 C 262.863281 -104.5625 271.078125 -93.019531 271.078125 -69.9375 L 271.078125 -51.28125 C 271.078125 -40.1875 270.410156 -31.304688 269.078125 -24.640625 C 267.742188 -17.984375 265.300781 -12.765625 261.75 -8.984375 C 258.195312 -5.210938 253.09375 -2.769531 246.4375 -1.65625 C 239.78125 -0.550781 230.898438 0 219.796875 0 L 77.921875 0 C 67.265625 0 58.492188 -0.550781 51.609375 -1.65625 C 44.734375 -2.769531 39.519531 -5.210938 35.96875 -8.984375 C 32.414062 -12.765625 29.972656 -17.984375 28.640625 -24.640625 C 27.304688 -31.304688 26.640625 -40.1875 26.640625 -51.28125 L 26.640625 -261.09375 C 26.640625 -272.632812 27.191406 -281.847656 28.296875 -288.734375 C 29.410156 -295.617188 31.851562 -300.945312 35.625 -304.71875 C 39.40625 -308.488281 44.625 -310.925781 51.28125 -312.03125 C 57.945312 -313.144531 66.828125 -313.703125 77.921875 -313.703125 L 219.796875 -313.703125 C 230.898438 -313.703125 239.890625 -313.144531 246.765625 -312.03125 C 253.648438 -310.925781 258.867188 -308.488281 262.421875 -304.71875 C 265.972656 -300.945312 268.300781 -295.617188 269.40625 -288.734375 C 270.519531 -281.847656 271.078125 -272.632812 271.078125 -261.09375 Z M 222.453125 -230.453125 C 222.453125 -245.546875 220.34375 -255.203125 216.125 -259.421875 C 211.914062 -263.640625 202.257812 -265.75 187.15625 -265.75 L 110.5625 -265.75 C 102.570312 -265.75 96.242188 -265.414062 91.578125 -264.75 C 86.921875 -264.082031 83.367188 -262.523438 80.921875 -260.078125 C 78.484375 -257.640625 76.929688 -254.085938 76.265625 -249.421875 C 75.597656 -244.765625 75.265625 -238.441406 75.265625 -230.453125 L 75.265625 -225.796875 C 75.265625 -217.796875 75.597656 -211.460938 76.265625 -206.796875 C 76.929688 -202.140625 78.484375 -198.476562 80.921875 -195.8125 C 83.367188 -193.15625 86.921875 -191.492188 91.578125 -190.828125 C 96.242188 -190.160156 102.570312 -189.828125 110.5625 -189.828125 L 187.15625 -189.828125 C 202.257812 -189.828125 211.914062 -191.9375 216.125 -196.15625 C 220.34375 -200.375 222.453125 -210.253906 222.453125 -225.796875 Z M 222.453125 -230.453125 "/></g></g></g><g fill="#95f6f0" fill-opacity="1"><g transform="translate(1112.323284, 955.499898)"><g><path d="M 119.21875 -56.609375 C 119.21875 -45.066406 118.660156 -35.628906 117.546875 -28.296875 C 116.441406 -20.972656 114.222656 -15.203125 110.890625 -10.984375 C 107.566406 -6.765625 103.015625 -3.878906 97.234375 -2.328125 C 91.460938 -0.773438 83.914062 0 74.59375 0 C 60.832031 0 50.953125 -1.21875 44.953125 -3.65625 C 38.960938 -6.101562 34.191406 -10.878906 30.640625 -17.984375 C 28.859375 -21.535156 27.742188 -25.863281 27.296875 -30.96875 C 26.859375 -36.070312 26.640625 -44.617188 26.640625 -56.609375 L 26.640625 -261.09375 C 26.640625 -272.632812 27.191406 -281.847656 28.296875 -288.734375 C 29.410156 -295.617188 31.851562 -300.945312 35.625 -304.71875 C 39.40625 -308.488281 44.625 -310.925781 51.28125 -312.03125 C 57.945312 -313.144531 66.828125 -313.703125 77.921875 -313.703125 L 162.515625 -313.703125 C 178.054688 -313.703125 188.820312 -311.925781 194.8125 -308.375 C 200.8125 -304.820312 203.8125 -298.609375 203.8125 -289.734375 C 203.8125 -279.960938 200.8125 -273.410156 194.8125 -270.078125 C 188.820312 -266.753906 178.054688 -265.09375 162.515625 -265.09375 L 110.5625 -265.09375 C 95.46875 -265.09375 85.8125 -262.984375 81.59375 -258.765625 C 77.375 -254.546875 75.265625 -244.882812 75.265625 -229.78125 L 75.265625 -226.453125 C 75.265625 -215.796875 76.59375 -208.578125 79.25 -204.796875 C 81.914062 -201.023438 87.914062 -198.03125 97.25 -195.8125 C 106.570312 -193.15625 112.5625 -189.601562 115.21875 -185.15625 C 117.882812 -180.71875 119.21875 -171.835938 119.21875 -158.515625 Z M 119.21875 -56.609375 "/></g></g></g></svg>