<svg xmlns="http://www.w3.org/2000/svg" xmlns:xlink="http://www.w3.org/1999/xlink" zoomAndPan="magnify" viewBox="2 219 1520 644" preserveAspectRatio="xMidYMid meet" version="1.0"><defs><g/><clipPath id="ff209797fa"><rect x="0" width="1499" y="0" height="962"/></clipPath></defs><g transform="matrix(1, 0, 0, 1, 0, 81)"><g clip-path="url(#ff209797fa)"><g fill="#0cbdff" fill-opacity="1"><g transform="translate(-2.870559, 746.428547)"><g><path d="M 354.046875 -66.8125 C 354.046875 -52.351562 353.175781 -40.785156 351.4375 -32.109375 C 349.695312 -23.429688 346.515625 -16.632812 341.890625 -11.71875 C 337.265625 -6.800781 330.613281 -3.617188 321.9375 -2.171875 C 313.257812 -0.722656 301.6875 0 287.21875 0 L 102.390625 0 C 87.929688 0 76.363281 -0.722656 67.6875 -2.171875 C 59.007812 -3.617188 52.210938 -6.800781 47.296875 -11.71875 C 42.378906 -16.632812 39.195312 -23.429688 37.75 -32.109375 C 36.300781 -40.785156 35.578125 -52.351562 35.578125 -66.8125 L 35.578125 -95.453125 C 35.578125 -115.117188 37.890625 -128.566406 42.515625 -135.796875 C 47.148438 -143.035156 55.25 -146.65625 66.8125 -146.65625 C 77.800781 -146.65625 85.460938 -143.757812 89.796875 -137.96875 C 94.140625 -132.1875 96.894531 -121.195312 98.0625 -105 C 98.632812 -86.488281 101.523438 -74.773438 106.734375 -69.859375 C 111.941406 -64.941406 123.222656 -62.484375 140.578125 -62.484375 L 186.5625 -62.484375 C 196.976562 -62.484375 205.222656 -63.0625 211.296875 -64.21875 C 217.367188 -65.375 221.992188 -67.539062 225.171875 -70.71875 C 228.359375 -73.90625 230.53125 -78.535156 231.6875 -84.609375 C 232.84375 -90.679688 233.421875 -98.632812 233.421875 -108.46875 L 233.421875 -137.109375 C 233.421875 -156.773438 230.671875 -169.210938 225.171875 -174.421875 C 219.679688 -179.628906 207.101562 -182.234375 187.4375 -182.234375 L 101.53125 -182.234375 C 87.644531 -182.234375 76.21875 -183.097656 67.25 -184.828125 C 58.28125 -186.566406 51.484375 -189.894531 46.859375 -194.8125 C 42.234375 -199.726562 39.050781 -206.523438 37.3125 -215.203125 C 35.570312 -223.878906 34.703125 -235.445312 34.703125 -249.90625 L 34.703125 -340.15625 C 34.703125 -355.195312 35.425781 -367.203125 36.875 -376.171875 C 38.320312 -385.140625 41.503906 -392.082031 46.421875 -397 C 51.335938 -401.914062 58.132812 -405.09375 66.8125 -406.53125 C 75.488281 -407.976562 87.0625 -408.703125 101.53125 -408.703125 L 288.09375 -408.703125 C 302.550781 -408.703125 314.117188 -407.976562 322.796875 -406.53125 C 331.472656 -405.09375 338.269531 -401.914062 343.1875 -397 C 348.113281 -392.082031 351.296875 -385.140625 352.734375 -376.171875 C 354.179688 -367.203125 354.90625 -355.195312 354.90625 -340.15625 L 354.90625 -321.9375 C 354.90625 -306.894531 352.445312 -296.191406 347.53125 -289.828125 C 342.613281 -283.460938 334.367188 -280.28125 322.796875 -280.28125 C 312.390625 -280.28125 304.726562 -282.882812 299.8125 -288.09375 C 294.894531 -293.300781 291.566406 -301.976562 289.828125 -314.125 C 288.671875 -327.425781 285.488281 -335.957031 280.28125 -339.71875 C 275.070312 -343.476562 263.789062 -345.359375 246.4375 -345.359375 L 144.046875 -345.359375 C 134.210938 -345.359375 126.257812 -344.78125 120.1875 -343.625 C 114.113281 -342.46875 109.484375 -340.296875 106.296875 -337.109375 C 103.117188 -333.929688 101.09375 -329.304688 100.21875 -323.234375 C 99.351562 -317.160156 98.921875 -309.207031 98.921875 -299.375 L 98.921875 -292.4375 C 98.921875 -282.601562 99.5 -274.644531 100.65625 -268.5625 C 101.8125 -262.488281 103.976562 -257.859375 107.15625 -254.671875 C 110.34375 -251.492188 114.972656 -249.472656 121.046875 -248.609375 C 127.117188 -247.742188 135.078125 -247.3125 144.921875 -247.3125 L 287.21875 -247.3125 C 301.6875 -247.3125 313.398438 -246.441406 322.359375 -244.703125 C 331.328125 -242.972656 338.125 -239.644531 342.75 -234.71875 C 347.382812 -229.800781 350.425781 -222.859375 351.875 -213.890625 C 353.320312 -204.929688 354.046875 -192.929688 354.046875 -177.890625 Z M 354.046875 -66.8125 "/></g></g></g><g fill="#0cbdff" fill-opacity="1"><g transform="translate(344.225655, 746.428547)"><g><path d="M 353.171875 -66.8125 C 353.171875 -52.351562 352.300781 -40.785156 350.5625 -32.109375 C 348.832031 -23.429688 345.648438 -16.632812 341.015625 -11.71875 C 336.390625 -6.800781 329.738281 -3.617188 321.0625 -2.171875 C 312.382812 -0.722656 300.816406 0 286.359375 0 L 101.53125 0 C 87.644531 0 76.21875 -0.863281 67.25 -2.59375 C 58.28125 -4.332031 51.484375 -7.515625 46.859375 -12.140625 C 42.234375 -16.773438 39.050781 -23.570312 37.3125 -32.53125 C 35.570312 -41.5 34.703125 -52.925781 34.703125 -66.8125 L 34.703125 -177.890625 C 34.703125 -192.929688 35.425781 -204.929688 36.875 -213.890625 C 38.320312 -222.859375 41.503906 -229.800781 46.421875 -234.71875 C 51.335938 -239.644531 58.132812 -242.828125 66.8125 -244.265625 C 75.488281 -245.710938 87.0625 -246.4375 101.53125 -246.4375 L 243.84375 -246.4375 C 253.675781 -246.4375 261.628906 -247.015625 267.703125 -248.171875 C 273.773438 -249.328125 278.398438 -251.492188 281.578125 -254.671875 C 284.765625 -257.859375 286.9375 -262.488281 288.09375 -268.5625 C 289.25 -274.644531 289.828125 -282.601562 289.828125 -292.4375 L 289.828125 -300.234375 C 289.828125 -310.078125 289.390625 -318.035156 288.515625 -324.109375 C 287.648438 -330.179688 285.628906 -334.804688 282.453125 -337.984375 C 279.273438 -341.171875 274.644531 -343.195312 268.5625 -344.0625 C 262.488281 -344.925781 254.25 -345.359375 243.84375 -345.359375 L 139.703125 -345.359375 C 125.242188 -345.359375 115.265625 -343.910156 109.765625 -341.015625 C 104.273438 -338.128906 100.953125 -331.769531 99.796875 -321.9375 L 98.0625 -309.78125 C 95.164062 -290.695312 84.75 -281.15625 66.8125 -281.15625 C 54.664062 -281.15625 46.273438 -284.625 41.640625 -291.5625 C 37.015625 -298.507812 34.703125 -311.238281 34.703125 -329.75 L 34.703125 -340.15625 C 34.703125 -355.195312 35.425781 -367.203125 36.875 -376.171875 C 38.320312 -385.140625 41.503906 -392.082031 46.421875 -397 C 51.335938 -401.914062 58.132812 -405.09375 66.8125 -406.53125 C 75.488281 -407.976562 87.0625 -408.703125 101.53125 -408.703125 L 287.21875 -408.703125 C 301.6875 -408.703125 313.257812 -407.976562 321.9375 -406.53125 C 330.613281 -405.09375 337.265625 -401.914062 341.890625 -397 C 346.515625 -392.082031 349.550781 -385.140625 351 -376.171875 C 352.445312 -367.203125 353.171875 -355.195312 353.171875 -340.15625 Z M 200.453125 -183.09375 C 180.785156 -183.09375 168.203125 -180.34375 162.703125 -174.84375 C 157.203125 -169.351562 154.453125 -156.773438 154.453125 -137.109375 L 154.453125 -109.34375 C 154.453125 -98.925781 154.882812 -90.679688 155.75 -84.609375 C 156.625 -78.535156 158.796875 -73.90625 162.265625 -70.71875 C 165.734375 -67.539062 170.503906 -65.515625 176.578125 -64.640625 C 182.660156 -63.773438 190.90625 -63.34375 201.3125 -63.34375 L 243.84375 -63.34375 C 253.675781 -63.34375 261.628906 -63.921875 267.703125 -65.078125 C 273.773438 -66.234375 278.398438 -68.398438 281.578125 -71.578125 C 284.765625 -74.765625 286.9375 -79.25 288.09375 -85.03125 C 289.25 -90.820312 289.828125 -98.632812 289.828125 -108.46875 L 289.828125 -134.5 C 289.828125 -145.488281 289.390625 -154.164062 288.515625 -160.53125 C 287.648438 -166.894531 285.628906 -171.8125 282.453125 -175.28125 C 279.273438 -178.75 274.644531 -180.914062 268.5625 -181.78125 C 262.488281 -182.65625 254.25 -183.09375 243.84375 -183.09375 Z M 200.453125 -183.09375 "/></g></g></g><g fill="#0cbdff" fill-opacity="1"><g transform="translate(689.586522, 746.428547)"><g><path d="M 64.21875 -509.375 C 64.21875 -524.414062 64.9375 -536.5625 66.375 -545.8125 C 67.820312 -555.070312 71.003906 -562.160156 75.921875 -567.078125 C 80.835938 -571.992188 87.632812 -575.175781 96.3125 -576.625 C 105 -578.070312 116.859375 -578.796875 131.890625 -578.796875 L 195.25 -578.796875 C 215.488281 -578.796875 229.515625 -576.476562 237.328125 -571.84375 C 245.140625 -567.21875 249.046875 -558.832031 249.046875 -546.6875 C 249.046875 -534.53125 245.140625 -526.28125 237.328125 -521.9375 C 229.515625 -517.601562 215.488281 -515.4375 195.25 -515.4375 L 173.546875 -515.4375 C 153.878906 -515.4375 141.441406 -512.546875 136.234375 -506.765625 C 131.023438 -500.984375 128.421875 -488.253906 128.421875 -468.578125 L 128.421875 -441.6875 C 128.421875 -427.800781 129.722656 -418.976562 132.328125 -415.21875 C 134.929688 -411.457031 141.726562 -409.578125 152.71875 -409.578125 C 166.601562 -408.992188 176.582031 -406.242188 182.65625 -401.328125 C 188.726562 -396.410156 191.765625 -388.457031 191.765625 -377.46875 C 191.765625 -356.644531 179.617188 -345.941406 155.328125 -345.359375 C 142.597656 -344.785156 134.785156 -342.757812 131.890625 -339.28125 C 129.003906 -335.8125 127.5625 -327.132812 127.5625 -313.25 L 127.5625 -295.03125 C 127.5625 -281.144531 129.148438 -271.742188 132.328125 -266.828125 C 135.515625 -261.910156 143.179688 -258.007812 155.328125 -255.125 C 167.472656 -251.644531 175.425781 -247.015625 179.1875 -241.234375 C 182.945312 -235.453125 184.828125 -223.882812 184.828125 -206.53125 L 184.828125 -73.765625 C 184.828125 -58.722656 184.101562 -46.425781 182.65625 -36.875 C 181.207031 -27.332031 178.3125 -19.8125 173.96875 -14.3125 C 169.632812 -8.820312 163.707031 -5.0625 156.1875 -3.03125 C 148.675781 -1.007812 138.84375 0 126.6875 0 C 108.757812 0 95.742188 -1.585938 87.640625 -4.765625 C 79.546875 -7.953125 73.472656 -14.171875 69.421875 -23.421875 C 67.109375 -28.054688 65.660156 -33.695312 65.078125 -40.34375 C 64.503906 -47 64.21875 -58.140625 64.21875 -73.765625 L 64.21875 -308.046875 L 63.34375 -322.796875 C 63.34375 -330.898438 62.039062 -336.253906 59.4375 -338.859375 C 56.832031 -341.460938 51.769531 -343.34375 44.25 -344.5 L 32.96875 -345.359375 C 10.988281 -347.097656 0 -357.515625 0 -376.609375 C 0 -398.003906 12.148438 -408.703125 36.453125 -408.703125 C 42.804688 -408.703125 47.863281 -409.132812 51.625 -410 C 55.382812 -410.875 58.132812 -412.898438 59.875 -416.078125 C 61.613281 -419.265625 62.769531 -423.894531 63.34375 -429.96875 C 63.925781 -436.039062 64.21875 -444.285156 64.21875 -454.703125 Z M 64.21875 -509.375 "/></g></g></g><g fill="#0cbdff" fill-opacity="1"><g transform="translate(872.679646, 746.428547)"><g><path d="M 353.171875 -250.78125 C 353.171875 -236.894531 352.300781 -225.46875 350.5625 -216.5 C 348.832031 -207.53125 345.648438 -200.734375 341.015625 -196.109375 C 336.390625 -191.484375 329.738281 -188.300781 321.0625 -186.5625 C 312.382812 -184.832031 300.816406 -183.96875 286.359375 -183.96875 L 200.453125 -183.96875 C 180.785156 -183.96875 168.203125 -181.21875 162.703125 -175.71875 C 157.203125 -170.21875 154.453125 -157.632812 154.453125 -137.96875 L 154.453125 -110.203125 C 154.453125 -99.785156 154.882812 -91.539062 155.75 -85.46875 C 156.625 -79.394531 158.796875 -74.765625 162.265625 -71.578125 C 165.734375 -68.398438 170.503906 -66.378906 176.578125 -65.515625 C 182.660156 -64.648438 190.90625 -64.21875 201.3125 -64.21875 L 252.515625 -64.21875 C 265.242188 -64.21875 274.207031 -66.238281 279.40625 -70.28125 C 284.613281 -74.332031 287.796875 -81.566406 288.953125 -91.984375 L 290.703125 -106.734375 C 292.429688 -126.398438 302.550781 -136.234375 321.0625 -136.234375 C 342.46875 -136.234375 353.171875 -121.191406 353.171875 -91.109375 L 353.171875 -66.8125 C 353.171875 -52.351562 352.300781 -40.785156 350.5625 -32.109375 C 348.832031 -23.429688 345.648438 -16.632812 341.015625 -11.71875 C 336.390625 -6.800781 329.738281 -3.617188 321.0625 -2.171875 C 312.382812 -0.722656 300.816406 0 286.359375 0 L 101.53125 0 C 87.644531 0 76.21875 -0.722656 67.25 -2.171875 C 58.28125 -3.617188 51.484375 -6.800781 46.859375 -11.71875 C 42.234375 -16.632812 39.050781 -23.429688 37.3125 -32.109375 C 35.570312 -40.785156 34.703125 -52.351562 34.703125 -66.8125 L 34.703125 -340.15625 C 34.703125 -355.195312 35.425781 -367.203125 36.875 -376.171875 C 38.320312 -385.140625 41.503906 -392.082031 46.421875 -397 C 51.335938 -401.914062 58.132812 -405.09375 66.8125 -406.53125 C 75.488281 -407.976562 87.0625 -408.703125 101.53125 -408.703125 L 286.359375 -408.703125 C 300.816406 -408.703125 312.53125 -407.976562 321.5 -406.53125 C 330.46875 -405.09375 337.265625 -401.914062 341.890625 -397 C 346.515625 -392.082031 349.550781 -385.140625 351 -376.171875 C 352.445312 -367.203125 353.171875 -355.195312 353.171875 -340.15625 Z M 289.828125 -300.234375 C 289.828125 -319.910156 287.078125 -332.492188 281.578125 -337.984375 C 276.085938 -343.484375 263.507812 -346.234375 243.84375 -346.234375 L 144.046875 -346.234375 C 133.628906 -346.234375 125.382812 -345.796875 119.3125 -344.921875 C 113.238281 -344.054688 108.609375 -342.03125 105.421875 -338.84375 C 102.242188 -335.664062 100.222656 -331.039062 99.359375 -324.96875 C 98.492188 -318.894531 98.0625 -310.648438 98.0625 -300.234375 L 98.0625 -294.171875 C 98.0625 -283.753906 98.492188 -275.507812 99.359375 -269.4375 C 100.222656 -263.363281 102.242188 -258.585938 105.421875 -255.109375 C 108.609375 -251.640625 113.238281 -249.472656 119.3125 -248.609375 C 125.382812 -247.742188 133.628906 -247.3125 144.046875 -247.3125 L 243.84375 -247.3125 C 263.507812 -247.3125 276.085938 -250.054688 281.578125 -255.546875 C 287.078125 -261.046875 289.828125 -273.921875 289.828125 -294.171875 Z M 289.828125 -300.234375 "/></g></g></g><g fill="#0cbdff" fill-opacity="1"><g transform="translate(1218.040512, 746.428547)"><g><path d="M 155.328125 -73.765625 C 155.328125 -58.722656 154.601562 -46.425781 153.15625 -36.875 C 151.707031 -27.332031 148.8125 -19.8125 144.46875 -14.3125 C 140.132812 -8.820312 134.207031 -5.0625 126.6875 -3.03125 C 119.164062 -1.007812 109.332031 0 97.1875 0 C 79.25 0 66.375 -1.585938 58.5625 -4.765625 C 50.757812 -7.953125 44.546875 -14.171875 39.921875 -23.421875 C 37.609375 -28.054688 36.160156 -33.695312 35.578125 -40.34375 C 34.992188 -47 34.703125 -58.140625 34.703125 -73.765625 L 34.703125 -340.15625 C 34.703125 -355.195312 35.425781 -367.203125 36.875 -376.171875 C 38.320312 -385.140625 41.503906 -392.082031 46.421875 -397 C 51.335938 -401.914062 58.132812 -405.09375 66.8125 -406.53125 C 75.488281 -407.976562 87.0625 -408.703125 101.53125 -408.703125 L 211.734375 -408.703125 C 231.984375 -408.703125 246.007812 -406.390625 253.8125 -401.765625 C 261.625 -397.140625 265.53125 -389.039062 265.53125 -377.46875 C 265.53125 -364.738281 261.625 -356.203125 253.8125 -351.859375 C 246.007812 -347.523438 231.984375 -345.359375 211.734375 -345.359375 L 144.046875 -345.359375 C 124.378906 -345.359375 111.796875 -342.609375 106.296875 -337.109375 C 100.804688 -331.617188 98.0625 -319.039062 98.0625 -299.375 L 98.0625 -295.03125 C 98.0625 -281.144531 99.796875 -271.742188 103.265625 -266.828125 C 106.734375 -261.910156 114.539062 -258.007812 126.6875 -255.125 C 138.84375 -251.644531 146.65625 -247.015625 150.125 -241.234375 C 153.59375 -235.453125 155.328125 -223.882812 155.328125 -206.53125 Z M 155.328125 -73.765625 "/></g></g></g><g fill="#ff7a00" fill-opacity="1"><g transform="translate(5.126106, 752.027867)"><g><path d="M 354.046875 -66.8125 C 354.046875 -52.351562 353.175781 -40.785156 351.4375 -32.109375 C 349.695312 -23.429688 346.515625 -16.632812 341.890625 -11.71875 C 337.265625 -6.800781 330.613281 -3.617188 321.9375 -2.171875 C 313.257812 -0.722656 301.6875 0 287.21875 0 L 102.390625 0 C 87.929688 0 76.363281 -0.722656 67.6875 -2.171875 C 59.007812 -3.617188 52.210938 -6.800781 47.296875 -11.71875 C 42.378906 -16.632812 39.195312 -23.429688 37.75 -32.109375 C 36.300781 -40.785156 35.578125 -52.351562 35.578125 -66.8125 L 35.578125 -95.453125 C 35.578125 -115.117188 37.890625 -128.566406 42.515625 -135.796875 C 47.148438 -143.035156 55.25 -146.65625 66.8125 -146.65625 C 77.800781 -146.65625 85.460938 -143.757812 89.796875 -137.96875 C 94.140625 -132.1875 96.894531 -121.195312 98.0625 -105 C 98.632812 -86.488281 101.523438 -74.773438 106.734375 -69.859375 C 111.941406 -64.941406 123.222656 -62.484375 140.578125 -62.484375 L 186.5625 -62.484375 C 196.976562 -62.484375 205.222656 -63.0625 211.296875 -64.21875 C 217.367188 -65.375 221.992188 -67.539062 225.171875 -70.71875 C 228.359375 -73.90625 230.53125 -78.535156 231.6875 -84.609375 C 232.84375 -90.679688 233.421875 -98.632812 233.421875 -108.46875 L 233.421875 -137.109375 C 233.421875 -156.773438 230.671875 -169.210938 225.171875 -174.421875 C 219.679688 -179.628906 207.101562 -182.234375 187.4375 -182.234375 L 101.53125 -182.234375 C 87.644531 -182.234375 76.21875 -183.097656 67.25 -184.828125 C 58.28125 -186.566406 51.484375 -189.894531 46.859375 -194.8125 C 42.234375 -199.726562 39.050781 -206.523438 37.3125 -215.203125 C 35.570312 -223.878906 34.703125 -235.445312 34.703125 -249.90625 L 34.703125 -340.15625 C 34.703125 -355.195312 35.425781 -367.203125 36.875 -376.171875 C 38.320312 -385.140625 41.503906 -392.082031 46.421875 -397 C 51.335938 -401.914062 58.132812 -405.09375 66.8125 -406.53125 C 75.488281 -407.976562 87.0625 -408.703125 101.53125 -408.703125 L 288.09375 -408.703125 C 302.550781 -408.703125 314.117188 -407.976562 322.796875 -406.53125 C 331.472656 -405.09375 338.269531 -401.914062 343.1875 -397 C 348.113281 -392.082031 351.296875 -385.140625 352.734375 -376.171875 C 354.179688 -367.203125 354.90625 -355.195312 354.90625 -340.15625 L 354.90625 -321.9375 C 354.90625 -306.894531 352.445312 -296.191406 347.53125 -289.828125 C 342.613281 -283.460938 334.367188 -280.28125 322.796875 -280.28125 C 312.390625 -280.28125 304.726562 -282.882812 299.8125 -288.09375 C 294.894531 -293.300781 291.566406 -301.976562 289.828125 -314.125 C 288.671875 -327.425781 285.488281 -335.957031 280.28125 -339.71875 C 275.070312 -343.476562 263.789062 -345.359375 246.4375 -345.359375 L 144.046875 -345.359375 C 134.210938 -345.359375 126.257812 -344.78125 120.1875 -343.625 C 114.113281 -342.46875 109.484375 -340.296875 106.296875 -337.109375 C 103.117188 -333.929688 101.09375 -329.304688 100.21875 -323.234375 C 99.351562 -317.160156 98.921875 -309.207031 98.921875 -299.375 L 98.921875 -292.4375 C 98.921875 -282.601562 99.5 -274.644531 100.65625 -268.5625 C 101.8125 -262.488281 103.976562 -257.859375 107.15625 -254.671875 C 110.34375 -251.492188 114.972656 -249.472656 121.046875 -248.609375 C 127.117188 -247.742188 135.078125 -247.3125 144.921875 -247.3125 L 287.21875 -247.3125 C 301.6875 -247.3125 313.398438 -246.441406 322.359375 -244.703125 C 331.328125 -242.972656 338.125 -239.644531 342.75 -234.71875 C 347.382812 -229.800781 350.425781 -222.859375 351.875 -213.890625 C 353.320312 -204.929688 354.046875 -192.929688 354.046875 -177.890625 Z M 354.046875 -66.8125 "/></g></g></g><g fill="#ff7a00" fill-opacity="1"><g transform="translate(352.222321, 752.027867)"><g><path d="M 353.171875 -66.8125 C 353.171875 -52.351562 352.300781 -40.785156 350.5625 -32.109375 C 348.832031 -23.429688 345.648438 -16.632812 341.015625 -11.71875 C 336.390625 -6.800781 329.738281 -3.617188 321.0625 -2.171875 C 312.382812 -0.722656 300.816406 0 286.359375 0 L 101.53125 0 C 87.644531 0 76.21875 -0.863281 67.25 -2.59375 C 58.28125 -4.332031 51.484375 -7.515625 46.859375 -12.140625 C 42.234375 -16.773438 39.050781 -23.570312 37.3125 -32.53125 C 35.570312 -41.5 34.703125 -52.925781 34.703125 -66.8125 L 34.703125 -177.890625 C 34.703125 -192.929688 35.425781 -204.929688 36.875 -213.890625 C 38.320312 -222.859375 41.503906 -229.800781 46.421875 -234.71875 C 51.335938 -239.644531 58.132812 -242.828125 66.8125 -244.265625 C 75.488281 -245.710938 87.0625 -246.4375 101.53125 -246.4375 L 243.84375 -246.4375 C 253.675781 -246.4375 261.628906 -247.015625 267.703125 -248.171875 C 273.773438 -249.328125 278.398438 -251.492188 281.578125 -254.671875 C 284.765625 -257.859375 286.9375 -262.488281 288.09375 -268.5625 C 289.25 -274.644531 289.828125 -282.601562 289.828125 -292.4375 L 289.828125 -300.234375 C 289.828125 -310.078125 289.390625 -318.035156 288.515625 -324.109375 C 287.648438 -330.179688 285.628906 -334.804688 282.453125 -337.984375 C 279.273438 -341.171875 274.644531 -343.195312 268.5625 -344.0625 C 262.488281 -344.925781 254.25 -345.359375 243.84375 -345.359375 L 139.703125 -345.359375 C 125.242188 -345.359375 115.265625 -343.910156 109.765625 -341.015625 C 104.273438 -338.128906 100.953125 -331.769531 99.796875 -321.9375 L 98.0625 -309.78125 C 95.164062 -290.695312 84.75 -281.15625 66.8125 -281.15625 C 54.664062 -281.15625 46.273438 -284.625 41.640625 -291.5625 C 37.015625 -298.507812 34.703125 -311.238281 34.703125 -329.75 L 34.703125 -340.15625 C 34.703125 -355.195312 35.425781 -367.203125 36.875 -376.171875 C 38.320312 -385.140625 41.503906 -392.082031 46.421875 -397 C 51.335938 -401.914062 58.132812 -405.09375 66.8125 -406.53125 C 75.488281 -407.976562 87.0625 -408.703125 101.53125 -408.703125 L 287.21875 -408.703125 C 301.6875 -408.703125 313.257812 -407.976562 321.9375 -406.53125 C 330.613281 -405.09375 337.265625 -401.914062 341.890625 -397 C 346.515625 -392.082031 349.550781 -385.140625 351 -376.171875 C 352.445312 -367.203125 353.171875 -355.195312 353.171875 -340.15625 Z M 200.453125 -183.09375 C 180.785156 -183.09375 168.203125 -180.34375 162.703125 -174.84375 C 157.203125 -169.351562 154.453125 -156.773438 154.453125 -137.109375 L 154.453125 -109.34375 C 154.453125 -98.925781 154.882812 -90.679688 155.75 -84.609375 C 156.625 -78.535156 158.796875 -73.90625 162.265625 -70.71875 C 165.734375 -67.539062 170.503906 -65.515625 176.578125 -64.640625 C 182.660156 -63.773438 190.90625 -63.34375 201.3125 -63.34375 L 243.84375 -63.34375 C 253.675781 -63.34375 261.628906 -63.921875 267.703125 -65.078125 C 273.773438 -66.234375 278.398438 -68.398438 281.578125 -71.578125 C 284.765625 -74.765625 286.9375 -79.25 288.09375 -85.03125 C 289.25 -90.820312 289.828125 -98.632812 289.828125 -108.46875 L 289.828125 -134.5 C 289.828125 -145.488281 289.390625 -154.164062 288.515625 -160.53125 C 287.648438 -166.894531 285.628906 -171.8125 282.453125 -175.28125 C 279.273438 -178.75 274.644531 -180.914062 268.5625 -181.78125 C 262.488281 -182.65625 254.25 -183.09375 243.84375 -183.09375 Z M 200.453125 -183.09375 "/></g></g></g><g fill="#ff7a00" fill-opacity="1"><g transform="translate(697.583187, 752.027867)"><g><path d="M 64.21875 -509.375 C 64.21875 -524.414062 64.9375 -536.5625 66.375 -545.8125 C 67.820312 -555.070312 71.003906 -562.160156 75.921875 -567.078125 C 80.835938 -571.992188 87.632812 -575.175781 96.3125 -576.625 C 105 -578.070312 116.859375 -578.796875 131.890625 -578.796875 L 195.25 -578.796875 C 215.488281 -578.796875 229.515625 -576.476562 237.328125 -571.84375 C 245.140625 -567.21875 249.046875 -558.832031 249.046875 -546.6875 C 249.046875 -534.53125 245.140625 -526.28125 237.328125 -521.9375 C 229.515625 -517.601562 215.488281 -515.4375 195.25 -515.4375 L 173.546875 -515.4375 C 153.878906 -515.4375 141.441406 -512.546875 136.234375 -506.765625 C 131.023438 -500.984375 128.421875 -488.253906 128.421875 -468.578125 L 128.421875 -441.6875 C 128.421875 -427.800781 129.722656 -418.976562 132.328125 -415.21875 C 134.929688 -411.457031 141.726562 -409.578125 152.71875 -409.578125 C 166.601562 -408.992188 176.582031 -406.242188 182.65625 -401.328125 C 188.726562 -396.410156 191.765625 -388.457031 191.765625 -377.46875 C 191.765625 -356.644531 179.617188 -345.941406 155.328125 -345.359375 C 142.597656 -344.785156 134.785156 -342.757812 131.890625 -339.28125 C 129.003906 -335.8125 127.5625 -327.132812 127.5625 -313.25 L 127.5625 -295.03125 C 127.5625 -281.144531 129.148438 -271.742188 132.328125 -266.828125 C 135.515625 -261.910156 143.179688 -258.007812 155.328125 -255.125 C 167.472656 -251.644531 175.425781 -247.015625 179.1875 -241.234375 C 182.945312 -235.453125 184.828125 -223.882812 184.828125 -206.53125 L 184.828125 -73.765625 C 184.828125 -58.722656 184.101562 -46.425781 182.65625 -36.875 C 181.207031 -27.332031 178.3125 -19.8125 173.96875 -14.3125 C 169.632812 -8.820312 163.707031 -5.0625 156.1875 -3.03125 C 148.675781 -1.007812 138.84375 0 126.6875 0 C 108.757812 0 95.742188 -1.585938 87.640625 -4.765625 C 79.546875 -7.953125 73.472656 -14.171875 69.421875 -23.421875 C 67.109375 -28.054688 65.660156 -33.695312 65.078125 -40.34375 C 64.503906 -47 64.21875 -58.140625 64.21875 -73.765625 L 64.21875 -308.046875 L 63.34375 -322.796875 C 63.34375 -330.898438 62.039062 -336.253906 59.4375 -338.859375 C 56.832031 -341.460938 51.769531 -343.34375 44.25 -344.5 L 32.96875 -345.359375 C 10.988281 -347.097656 0 -357.515625 0 -376.609375 C 0 -398.003906 12.148438 -408.703125 36.453125 -408.703125 C 42.804688 -408.703125 47.863281 -409.132812 51.625 -410 C 55.382812 -410.875 58.132812 -412.898438 59.875 -416.078125 C 61.613281 -419.265625 62.769531 -423.894531 63.34375 -429.96875 C 63.925781 -436.039062 64.21875 -444.285156 64.21875 -454.703125 Z M 64.21875 -509.375 "/></g></g></g><g fill="#ff7a00" fill-opacity="1"><g transform="translate(880.676312, 752.027867)"><g><path d="M 353.171875 -250.78125 C 353.171875 -236.894531 352.300781 -225.46875 350.5625 -216.5 C 348.832031 -207.53125 345.648438 -200.734375 341.015625 -196.109375 C 336.390625 -191.484375 329.738281 -188.300781 321.0625 -186.5625 C 312.382812 -184.832031 300.816406 -183.96875 286.359375 -183.96875 L 200.453125 -183.96875 C 180.785156 -183.96875 168.203125 -181.21875 162.703125 -175.71875 C 157.203125 -170.21875 154.453125 -157.632812 154.453125 -137.96875 L 154.453125 -110.203125 C 154.453125 -99.785156 154.882812 -91.539062 155.75 -85.46875 C 156.625 -79.394531 158.796875 -74.765625 162.265625 -71.578125 C 165.734375 -68.398438 170.503906 -66.378906 176.578125 -65.515625 C 182.660156 -64.648438 190.90625 -64.21875 201.3125 -64.21875 L 252.515625 -64.21875 C 265.242188 -64.21875 274.207031 -66.238281 279.40625 -70.28125 C 284.613281 -74.332031 287.796875 -81.566406 288.953125 -91.984375 L 290.703125 -106.734375 C 292.429688 -126.398438 302.550781 -136.234375 321.0625 -136.234375 C 342.46875 -136.234375 353.171875 -121.191406 353.171875 -91.109375 L 353.171875 -66.8125 C 353.171875 -52.351562 352.300781 -40.785156 350.5625 -32.109375 C 348.832031 -23.429688 345.648438 -16.632812 341.015625 -11.71875 C 336.390625 -6.800781 329.738281 -3.617188 321.0625 -2.171875 C 312.382812 -0.722656 300.816406 0 286.359375 0 L 101.53125 0 C 87.644531 0 76.21875 -0.722656 67.25 -2.171875 C 58.28125 -3.617188 51.484375 -6.800781 46.859375 -11.71875 C 42.234375 -16.632812 39.050781 -23.429688 37.3125 -32.109375 C 35.570312 -40.785156 34.703125 -52.351562 34.703125 -66.8125 L 34.703125 -340.15625 C 34.703125 -355.195312 35.425781 -367.203125 36.875 -376.171875 C 38.320312 -385.140625 41.503906 -392.082031 46.421875 -397 C 51.335938 -401.914062 58.132812 -405.09375 66.8125 -406.53125 C 75.488281 -407.976562 87.0625 -408.703125 101.53125 -408.703125 L 286.359375 -408.703125 C 300.816406 -408.703125 312.53125 -407.976562 321.5 -406.53125 C 330.46875 -405.09375 337.265625 -401.914062 341.890625 -397 C 346.515625 -392.082031 349.550781 -385.140625 351 -376.171875 C 352.445312 -367.203125 353.171875 -355.195312 353.171875 -340.15625 Z M 289.828125 -300.234375 C 289.828125 -319.910156 287.078125 -332.492188 281.578125 -337.984375 C 276.085938 -343.484375 263.507812 -346.234375 243.84375 -346.234375 L 144.046875 -346.234375 C 133.628906 -346.234375 125.382812 -345.796875 119.3125 -344.921875 C 113.238281 -344.054688 108.609375 -342.03125 105.421875 -338.84375 C 102.242188 -335.664062 100.222656 -331.039062 99.359375 -324.96875 C 98.492188 -318.894531 98.0625 -310.648438 98.0625 -300.234375 L 98.0625 -294.171875 C 98.0625 -283.753906 98.492188 -275.507812 99.359375 -269.4375 C 100.222656 -263.363281 102.242188 -258.585938 105.421875 -255.109375 C 108.609375 -251.640625 113.238281 -249.472656 119.3125 -248.609375 C 125.382812 -247.742188 133.628906 -247.3125 144.046875 -247.3125 L 243.84375 -247.3125 C 263.507812 -247.3125 276.085938 -250.054688 281.578125 -255.546875 C 287.078125 -261.046875 289.828125 -273.921875 289.828125 -294.171875 Z M 289.828125 -300.234375 "/></g></g></g><g fill="#ff7a00" fill-opacity="1"><g transform="translate(1226.037178, 752.027867)"><g><path d="M 155.328125 -73.765625 C 155.328125 -58.722656 154.601562 -46.425781 153.15625 -36.875 C 151.707031 -27.332031 148.8125 -19.8125 144.46875 -14.3125 C 140.132812 -8.820312 134.207031 -5.0625 126.6875 -3.03125 C 119.164062 -1.007812 109.332031 0 97.1875 0 C 79.25 0 66.375 -1.585938 58.5625 -4.765625 C 50.757812 -7.953125 44.546875 -14.171875 39.921875 -23.421875 C 37.609375 -28.054688 36.160156 -33.695312 35.578125 -40.34375 C 34.992188 -47 34.703125 -58.140625 34.703125 -73.765625 L 34.703125 -340.15625 C 34.703125 -355.195312 35.425781 -367.203125 36.875 -376.171875 C 38.320312 -385.140625 41.503906 -392.082031 46.421875 -397 C 51.335938 -401.914062 58.132812 -405.09375 66.8125 -406.53125 C 75.488281 -407.976562 87.0625 -408.703125 101.53125 -408.703125 L 211.734375 -408.703125 C 231.984375 -408.703125 246.007812 -406.390625 253.8125 -401.765625 C 261.625 -397.140625 265.53125 -389.039062 265.53125 -377.46875 C 265.53125 -364.738281 261.625 -356.203125 253.8125 -351.859375 C 246.007812 -347.523438 231.984375 -345.359375 211.734375 -345.359375 L 144.046875 -345.359375 C 124.378906 -345.359375 111.796875 -342.609375 106.296875 -337.109375 C 100.804688 -331.617188 98.0625 -319.039062 98.0625 -299.375 L 98.0625 -295.03125 C 98.0625 -281.144531 99.796875 -271.742188 103.265625 -266.828125 C 106.734375 -261.910156 114.539062 -258.007812 126.6875 -255.125 C 138.84375 -251.644531 146.65625 -247.015625 150.125 -241.234375 C 153.59375 -235.453125 155.328125 -223.882812 155.328125 -206.53125 Z M 155.328125 -73.765625 "/></g></g></g><g fill="#7dd3fc" fill-opacity="1"><g transform="translate(1.127773, 749.228207)"><g><path d="M 354.046875 -66.8125 C 354.046875 -52.351562 353.175781 -40.785156 351.4375 -32.109375 C 349.695312 -23.429688 346.515625 -16.632812 341.890625 -11.71875 C 337.265625 -6.800781 330.613281 -3.617188 321.9375 -2.171875 C 313.257812 -0.722656 301.6875 0 287.21875 0 L 102.390625 0 C 87.929688 0 76.363281 -0.722656 67.6875 -2.171875 C 59.007812 -3.617188 52.210938 -6.800781 47.296875 -11.71875 C 42.378906 -16.632812 39.195312 -23.429688 37.75 -32.109375 C 36.300781 -40.785156 35.578125 -52.351562 35.578125 -66.8125 L 35.578125 -95.453125 C 35.578125 -115.117188 37.890625 -128.566406 42.515625 -135.796875 C 47.148438 -143.035156 55.25 -146.65625 66.8125 -146.65625 C 77.800781 -146.65625 85.460938 -143.757812 89.796875 -137.96875 C 94.140625 -132.1875 96.894531 -121.195312 98.0625 -105 C 98.632812 -86.488281 101.523438 -74.773438 106.734375 -69.859375 C 111.941406 -64.941406 123.222656 -62.484375 140.578125 -62.484375 L 186.5625 -62.484375 C 196.976562 -62.484375 205.222656 -63.0625 211.296875 -64.21875 C 217.367188 -65.375 221.992188 -67.539062 225.171875 -70.71875 C 228.359375 -73.90625 230.53125 -78.535156 231.6875 -84.609375 C 232.84375 -90.679688 233.421875 -98.632812 233.421875 -108.46875 L 233.421875 -137.109375 C 233.421875 -156.773438 230.671875 -169.210938 225.171875 -174.421875 C 219.679688 -179.628906 207.101562 -182.234375 187.4375 -182.234375 L 101.53125 -182.234375 C 87.644531 -182.234375 76.21875 -183.097656 67.25 -184.828125 C 58.28125 -186.566406 51.484375 -189.894531 46.859375 -194.8125 C 42.234375 -199.726562 39.050781 -206.523438 37.3125 -215.203125 C 35.570312 -223.878906 34.703125 -235.445312 34.703125 -249.90625 L 34.703125 -340.15625 C 34.703125 -355.195312 35.425781 -367.203125 36.875 -376.171875 C 38.320312 -385.140625 41.503906 -392.082031 46.421875 -397 C 51.335938 -401.914062 58.132812 -405.09375 66.8125 -406.53125 C 75.488281 -407.976562 87.0625 -408.703125 101.53125 -408.703125 L 288.09375 -408.703125 C 302.550781 -408.703125 314.117188 -407.976562 322.796875 -406.53125 C 331.472656 -405.09375 338.269531 -401.914062 343.1875 -397 C 348.113281 -392.082031 351.296875 -385.140625 352.734375 -376.171875 C 354.179688 -367.203125 354.90625 -355.195312 354.90625 -340.15625 L 354.90625 -321.9375 C 354.90625 -306.894531 352.445312 -296.191406 347.53125 -289.828125 C 342.613281 -283.460938 334.367188 -280.28125 322.796875 -280.28125 C 312.390625 -280.28125 304.726562 -282.882812 299.8125 -288.09375 C 294.894531 -293.300781 291.566406 -301.976562 289.828125 -314.125 C 288.671875 -327.425781 285.488281 -335.957031 280.28125 -339.71875 C 275.070312 -343.476562 263.789062 -345.359375 246.4375 -345.359375 L 144.046875 -345.359375 C 134.210938 -345.359375 126.257812 -344.78125 120.1875 -343.625 C 114.113281 -342.46875 109.484375 -340.296875 106.296875 -337.109375 C 103.117188 -333.929688 101.09375 -329.304688 100.21875 -323.234375 C 99.351562 -317.160156 98.921875 -309.207031 98.921875 -299.375 L 98.921875 -292.4375 C 98.921875 -282.601562 99.5 -274.644531 100.65625 -268.5625 C 101.8125 -262.488281 103.976562 -257.859375 107.15625 -254.671875 C 110.34375 -251.492188 114.972656 -249.472656 121.046875 -248.609375 C 127.117188 -247.742188 135.078125 -247.3125 144.921875 -247.3125 L 287.21875 -247.3125 C 301.6875 -247.3125 313.398438 -246.441406 322.359375 -244.703125 C 331.328125 -242.972656 338.125 -239.644531 342.75 -234.71875 C 347.382812 -229.800781 350.425781 -222.859375 351.875 -213.890625 C 353.320312 -204.929688 354.046875 -192.929688 354.046875 -177.890625 Z M 354.046875 -66.8125 "/></g></g></g><g fill="#7dd3fc" fill-opacity="1"><g transform="translate(348.223988, 749.228207)"><g><path d="M 353.171875 -66.8125 C 353.171875 -52.351562 352.300781 -40.785156 350.5625 -32.109375 C 348.832031 -23.429688 345.648438 -16.632812 341.015625 -11.71875 C 336.390625 -6.800781 329.738281 -3.617188 321.0625 -2.171875 C 312.382812 -0.722656 300.816406 0 286.359375 0 L 101.53125 0 C 87.644531 0 76.21875 -0.863281 67.25 -2.59375 C 58.28125 -4.332031 51.484375 -7.515625 46.859375 -12.140625 C 42.234375 -16.773438 39.050781 -23.570312 37.3125 -32.53125 C 35.570312 -41.5 34.703125 -52.925781 34.703125 -66.8125 L 34.703125 -177.890625 C 34.703125 -192.929688 35.425781 -204.929688 36.875 -213.890625 C 38.320312 -222.859375 41.503906 -229.800781 46.421875 -234.71875 C 51.335938 -239.644531 58.132812 -242.828125 66.8125 -244.265625 C 75.488281 -245.710938 87.0625 -246.4375 101.53125 -246.4375 L 243.84375 -246.4375 C 253.675781 -246.4375 261.628906 -247.015625 267.703125 -248.171875 C 273.773438 -249.328125 278.398438 -251.492188 281.578125 -254.671875 C 284.765625 -257.859375 286.9375 -262.488281 288.09375 -268.5625 C 289.25 -274.644531 289.828125 -282.601562 289.828125 -292.4375 L 289.828125 -300.234375 C 289.828125 -310.078125 289.390625 -318.035156 288.515625 -324.109375 C 287.648438 -330.179688 285.628906 -334.804688 282.453125 -337.984375 C 279.273438 -341.171875 274.644531 -343.195312 268.5625 -344.0625 C 262.488281 -344.925781 254.25 -345.359375 243.84375 -345.359375 L 139.703125 -345.359375 C 125.242188 -345.359375 115.265625 -343.910156 109.765625 -341.015625 C 104.273438 -338.128906 100.953125 -331.769531 99.796875 -321.9375 L 98.0625 -309.78125 C 95.164062 -290.695312 84.75 -281.15625 66.8125 -281.15625 C 54.664062 -281.15625 46.273438 -284.625 41.640625 -291.5625 C 37.015625 -298.507812 34.703125 -311.238281 34.703125 -329.75 L 34.703125 -340.15625 C 34.703125 -355.195312 35.425781 -367.203125 36.875 -376.171875 C 38.320312 -385.140625 41.503906 -392.082031 46.421875 -397 C 51.335938 -401.914062 58.132812 -405.09375 66.8125 -406.53125 C 75.488281 -407.976562 87.0625 -408.703125 101.53125 -408.703125 L 287.21875 -408.703125 C 301.6875 -408.703125 313.257812 -407.976562 321.9375 -406.53125 C 330.613281 -405.09375 337.265625 -401.914062 341.890625 -397 C 346.515625 -392.082031 349.550781 -385.140625 351 -376.171875 C 352.445312 -367.203125 353.171875 -355.195312 353.171875 -340.15625 Z M 200.453125 -183.09375 C 180.785156 -183.09375 168.203125 -180.34375 162.703125 -174.84375 C 157.203125 -169.351562 154.453125 -156.773438 154.453125 -137.109375 L 154.453125 -109.34375 C 154.453125 -98.925781 154.882812 -90.679688 155.75 -84.609375 C 156.625 -78.535156 158.796875 -73.90625 162.265625 -70.71875 C 165.734375 -67.539062 170.503906 -65.515625 176.578125 -64.640625 C 182.660156 -63.773438 190.90625 -63.34375 201.3125 -63.34375 L 243.84375 -63.34375 C 253.675781 -63.34375 261.628906 -63.921875 267.703125 -65.078125 C 273.773438 -66.234375 278.398438 -68.398438 281.578125 -71.578125 C 284.765625 -74.765625 286.9375 -79.25 288.09375 -85.03125 C 289.25 -90.820312 289.828125 -98.632812 289.828125 -108.46875 L 289.828125 -134.5 C 289.828125 -145.488281 289.390625 -154.164062 288.515625 -160.53125 C 287.648438 -166.894531 285.628906 -171.8125 282.453125 -175.28125 C 279.273438 -178.75 274.644531 -180.914062 268.5625 -181.78125 C 262.488281 -182.65625 254.25 -183.09375 243.84375 -183.09375 Z M 200.453125 -183.09375 "/></g></g></g><g fill="#7dd3fc" fill-opacity="1"><g transform="translate(693.584854, 749.228207)"><g><path d="M 64.21875 -509.375 C 64.21875 -524.414062 64.9375 -536.5625 66.375 -545.8125 C 67.820312 -555.070312 71.003906 -562.160156 75.921875 -567.078125 C 80.835938 -571.992188 87.632812 -575.175781 96.3125 -576.625 C 105 -578.070312 116.859375 -578.796875 131.890625 -578.796875 L 195.25 -578.796875 C 215.488281 -578.796875 229.515625 -576.476562 237.328125 -571.84375 C 245.140625 -567.21875 249.046875 -558.832031 249.046875 -546.6875 C 249.046875 -534.53125 245.140625 -526.28125 237.328125 -521.9375 C 229.515625 -517.601562 215.488281 -515.4375 195.25 -515.4375 L 173.546875 -515.4375 C 153.878906 -515.4375 141.441406 -512.546875 136.234375 -506.765625 C 131.023438 -500.984375 128.421875 -488.253906 128.421875 -468.578125 L 128.421875 -441.6875 C 128.421875 -427.800781 129.722656 -418.976562 132.328125 -415.21875 C 134.929688 -411.457031 141.726562 -409.578125 152.71875 -409.578125 C 166.601562 -408.992188 176.582031 -406.242188 182.65625 -401.328125 C 188.726562 -396.410156 191.765625 -388.457031 191.765625 -377.46875 C 191.765625 -356.644531 179.617188 -345.941406 155.328125 -345.359375 C 142.597656 -344.785156 134.785156 -342.757812 131.890625 -339.28125 C 129.003906 -335.8125 127.5625 -327.132812 127.5625 -313.25 L 127.5625 -295.03125 C 127.5625 -281.144531 129.148438 -271.742188 132.328125 -266.828125 C 135.515625 -261.910156 143.179688 -258.007812 155.328125 -255.125 C 167.472656 -251.644531 175.425781 -247.015625 179.1875 -241.234375 C 182.945312 -235.453125 184.828125 -223.882812 184.828125 -206.53125 L 184.828125 -73.765625 C 184.828125 -58.722656 184.101562 -46.425781 182.65625 -36.875 C 181.207031 -27.332031 178.3125 -19.8125 173.96875 -14.3125 C 169.632812 -8.820312 163.707031 -5.0625 156.1875 -3.03125 C 148.675781 -1.007812 138.84375 0 126.6875 0 C 108.757812 0 95.742188 -1.585938 87.640625 -4.765625 C 79.546875 -7.953125 73.472656 -14.171875 69.421875 -23.421875 C 67.109375 -28.054688 65.660156 -33.695312 65.078125 -40.34375 C 64.503906 -47 64.21875 -58.140625 64.21875 -73.765625 L 64.21875 -308.046875 L 63.34375 -322.796875 C 63.34375 -330.898438 62.039062 -336.253906 59.4375 -338.859375 C 56.832031 -341.460938 51.769531 -343.34375 44.25 -344.5 L 32.96875 -345.359375 C 10.988281 -347.097656 0 -357.515625 0 -376.609375 C 0 -398.003906 12.148438 -408.703125 36.453125 -408.703125 C 42.804688 -408.703125 47.863281 -409.132812 51.625 -410 C 55.382812 -410.875 58.132812 -412.898438 59.875 -416.078125 C 61.613281 -419.265625 62.769531 -423.894531 63.34375 -429.96875 C 63.925781 -436.039062 64.21875 -444.285156 64.21875 -454.703125 Z M 64.21875 -509.375 "/></g></g></g><g fill="#7dd3fc" fill-opacity="1"><g transform="translate(876.677979, 749.228207)"><g><path d="M 353.171875 -250.78125 C 353.171875 -236.894531 352.300781 -225.46875 350.5625 -216.5 C 348.832031 -207.53125 345.648438 -200.734375 341.015625 -196.109375 C 336.390625 -191.484375 329.738281 -188.300781 321.0625 -186.5625 C 312.382812 -184.832031 300.816406 -183.96875 286.359375 -183.96875 L 200.453125 -183.96875 C 180.785156 -183.96875 168.203125 -181.21875 162.703125 -175.71875 C 157.203125 -170.21875 154.453125 -157.632812 154.453125 -137.96875 L 154.453125 -110.203125 C 154.453125 -99.785156 154.882812 -91.539062 155.75 -85.46875 C 156.625 -79.394531 158.796875 -74.765625 162.265625 -71.578125 C 165.734375 -68.398438 170.503906 -66.378906 176.578125 -65.515625 C 182.660156 -64.648438 190.90625 -64.21875 201.3125 -64.21875 L 252.515625 -64.21875 C 265.242188 -64.21875 274.207031 -66.238281 279.40625 -70.28125 C 284.613281 -74.332031 287.796875 -81.566406 288.953125 -91.984375 L 290.703125 -106.734375 C 292.429688 -126.398438 302.550781 -136.234375 321.0625 -136.234375 C 342.46875 -136.234375 353.171875 -121.191406 353.171875 -91.109375 L 353.171875 -66.8125 C 353.171875 -52.351562 352.300781 -40.785156 350.5625 -32.109375 C 348.832031 -23.429688 345.648438 -16.632812 341.015625 -11.71875 C 336.390625 -6.800781 329.738281 -3.617188 321.0625 -2.171875 C 312.382812 -0.722656 300.816406 0 286.359375 0 L 101.53125 0 C 87.644531 0 76.21875 -0.722656 67.25 -2.171875 C 58.28125 -3.617188 51.484375 -6.800781 46.859375 -11.71875 C 42.234375 -16.632812 39.050781 -23.429688 37.3125 -32.109375 C 35.570312 -40.785156 34.703125 -52.351562 34.703125 -66.8125 L 34.703125 -340.15625 C 34.703125 -355.195312 35.425781 -367.203125 36.875 -376.171875 C 38.320312 -385.140625 41.503906 -392.082031 46.421875 -397 C 51.335938 -401.914062 58.132812 -405.09375 66.8125 -406.53125 C 75.488281 -407.976562 87.0625 -408.703125 101.53125 -408.703125 L 286.359375 -408.703125 C 300.816406 -408.703125 312.53125 -407.976562 321.5 -406.53125 C 330.46875 -405.09375 337.265625 -401.914062 341.890625 -397 C 346.515625 -392.082031 349.550781 -385.140625 351 -376.171875 C 352.445312 -367.203125 353.171875 -355.195312 353.171875 -340.15625 Z M 289.828125 -300.234375 C 289.828125 -319.910156 287.078125 -332.492188 281.578125 -337.984375 C 276.085938 -343.484375 263.507812 -346.234375 243.84375 -346.234375 L 144.046875 -346.234375 C 133.628906 -346.234375 125.382812 -345.796875 119.3125 -344.921875 C 113.238281 -344.054688 108.609375 -342.03125 105.421875 -338.84375 C 102.242188 -335.664062 100.222656 -331.039062 99.359375 -324.96875 C 98.492188 -318.894531 98.0625 -310.648438 98.0625 -300.234375 L 98.0625 -294.171875 C 98.0625 -283.753906 98.492188 -275.507812 99.359375 -269.4375 C 100.222656 -263.363281 102.242188 -258.585938 105.421875 -255.109375 C 108.609375 -251.640625 113.238281 -249.472656 119.3125 -248.609375 C 125.382812 -247.742188 133.628906 -247.3125 144.046875 -247.3125 L 243.84375 -247.3125 C 263.507812 -247.3125 276.085938 -250.054688 281.578125 -255.546875 C 287.078125 -261.046875 289.828125 -273.921875 289.828125 -294.171875 Z M 289.828125 -300.234375 "/></g></g></g><g fill="#7dd3fc" fill-opacity="1"><g transform="translate(1222.038845, 749.228207)"><g><path d="M 155.328125 -73.765625 C 155.328125 -58.722656 154.601562 -46.425781 153.15625 -36.875 C 151.707031 -27.332031 148.8125 -19.8125 144.46875 -14.3125 C 140.132812 -8.820312 134.207031 -5.0625 126.6875 -3.03125 C 119.164062 -1.007812 109.332031 0 97.1875 0 C 79.25 0 66.375 -1.585938 58.5625 -4.765625 C 50.757812 -7.953125 44.546875 -14.171875 39.921875 -23.421875 C 37.609375 -28.054688 36.160156 -33.695312 35.578125 -40.34375 C 34.992188 -47 34.703125 -58.140625 34.703125 -73.765625 L 34.703125 -340.15625 C 34.703125 -355.195312 35.425781 -367.203125 36.875 -376.171875 C 38.320312 -385.140625 41.503906 -392.082031 46.421875 -397 C 51.335938 -401.914062 58.132812 -405.09375 66.8125 -406.53125 C 75.488281 -407.976562 87.0625 -408.703125 101.53125 -408.703125 L 211.734375 -408.703125 C 231.984375 -408.703125 246.007812 -406.390625 253.8125 -401.765625 C 261.625 -397.140625 265.53125 -389.039062 265.53125 -377.46875 C 265.53125 -364.738281 261.625 -356.203125 253.8125 -351.859375 C 246.007812 -347.523438 231.984375 -345.359375 211.734375 -345.359375 L 144.046875 -345.359375 C 124.378906 -345.359375 111.796875 -342.609375 106.296875 -337.109375 C 100.804688 -331.617188 98.0625 -319.039062 98.0625 -299.375 L 98.0625 -295.03125 C 98.0625 -281.144531 99.796875 -271.742188 103.265625 -266.828125 C 106.734375 -261.910156 114.539062 -258.007812 126.6875 -255.125 C 138.84375 -251.644531 146.65625 -247.015625 150.125 -241.234375 C 153.59375 -235.453125 155.328125 -223.882812 155.328125 -206.53125 Z M 155.328125 -73.765625 "/></g></g></g></g></g></svg>